<?xml version="1.0" encoding="utf-8"?>
<!-- Generator: Adobe Illustrator 23.0.2, SVG Export Plug-In . SVG Version: 6.00 Build 0)  -->
<svg version="1.1" id="Layer_1" xmlns="http://www.w3.org/2000/svg" xmlns:xlink="http://www.w3.org/1999/xlink" x="0px" y="0px"
	 viewBox="0 0 280 96.2" style="enable-background:new 0 0 280 96.2;" xml:space="preserve">
<style type="text/css">
	.st0{fill:#FFFFFF;}
</style>
<path class="st0" d="M38.1,21.1c0.1,0.2,0.1,0.4-0.1,0.6c-1.5,1.3-2.9,2.1-4.2,2.4c-1.4,0.3-2-0.1-1.7-1.3c-0.9,0.7-1.8,1.1-2.6,1.2
	c-0.9,0.1-1.5-0.1-1.9-0.7c-0.3-0.5-0.3-1.1-0.1-1.8c-0.3,0.2-0.5,0.4-0.7,0.5c-0.1,0-0.2,0.1-0.3,0.1c-0.1,0-0.2-0.1-0.3-0.1
	c-0.1-0.1-0.1-0.2-0.1-0.3c0-0.1,0.1-0.2,0.1-0.3c0.1-0.1,0.2-0.2,0.3-0.3l0.1-0.1l0.1-0.1c0.1-0.1,0.2-0.2,0.3-0.3
	c0,0,0.1,0,0.1-0.1c0.1-0.1,0.1-0.1,0.2-0.2c0.2-0.2,0.4-0.3,0.6-0.4c0.5-0.4,0.9-0.6,1-0.7c1-0.6,1.9-0.9,2.7-1
	c0.7-0.1,1.5-0.1,2.2,0c0.3,0,0.4,0.2,0.4,0.5c0,0.3-0.2,0.4-0.5,0.4c-1.3-0.1-2.6,0.2-3.9,1c-0.9,0.6-1.4,1.2-1.6,1.7
	c-0.2,0.5,0,0.8,0.4,1c0.5,0.2,1.1,0.1,1.8-0.3c0.9-0.4,1.8-1.1,2.7-2.2c0.4-0.7,0.9-1.2,1.3-1.7c0.2-0.2,0.4-0.2,0.6,0
	c0.2,0.2,0.2,0.4,0.1,0.6l0,0.1l0,0.1c-0.2,0.3-0.5,0.7-0.9,1.3c-0.5,0.7-0.8,1.3-1.1,1.8c-0.4,0.7-0.2,1,0.4,0.8
	c0.2-0.1,0.5-0.2,0.9-0.3c0.3-0.1,0.5-0.3,0.8-0.4c0.4-0.2,0.8-0.5,1.2-0.8c0.2-0.1,0.3-0.2,0.5-0.4c0.1-0.1,0.3-0.2,0.4-0.3
	c0.1-0.1,0.2-0.1,0.4-0.1C38,20.9,38.1,21,38.1,21.1z M53.7,21.1c0.1,0.2,0.1,0.4-0.1,0.6c-0.1,0.1-0.2,0.2-0.4,0.3l-0.2,0.2
	l-0.3,0.2c-1.7,1.3-3,1.9-4.1,1.9c-1.1,0-1.3-0.7-0.7-2.2c-1.9,1.6-3.4,2.4-4.4,2.3c-1-0.1-1.3-0.9-1-2.4c-2.1,1.8-3.5,2.3-4,1.6
	c-0.3-0.5-0.4-1.2-0.1-2v0c-0.4,0.3-0.7,0.5-0.9,0.6c-0.1,0-0.1,0.1-0.3,0.1c-0.1,0-0.2-0.1-0.3-0.1c-0.1-0.1-0.1-0.2-0.1-0.3
	c0-0.1,0.1-0.2,0.1-0.3c0.1-0.1,0.2-0.2,0.5-0.4l0.2-0.1l0.2-0.2c0.2-0.2,0.3-0.3,0.5-0.4c0.3-0.3,0.7-0.7,1.2-1.1l0.5-0.5l0.3-0.3
	l0.2-0.3c0.2-0.2,0.4-0.2,0.6,0c0.2,0.2,0.2,0.4,0,0.6c-0.6,0.6-1.1,1.2-1.5,2c-0.5,0.8-0.7,1.5-0.7,1.9l0,0.1c0,0,0,0.1,0.1,0.1
	c0.1,0,0.2,0,0.5-0.1c1.2-0.7,2.5-1.7,3.9-3.1c0.6-1.2,1.2-1.7,1.6-1.7c0.1,0,0.2,0,0.3,0.1c0.1,0.1,0.1,0.2,0.1,0.4
	c0,0.3-0.5,1.1-1.6,2.2c-0.7,1.4-1,2.3-0.7,2.7c0,0,0,0,0,0c0.4,0.4,1.5-0.1,3.4-1.7c0.7-0.6,1.4-1.2,2.1-2c0.6-0.6,1.1-1.1,1.5-1.6
	c0.2-0.3,0.5-0.3,0.7-0.1c0.3,0.2,0.3,0.5,0.1,0.7c-0.2,0.2-0.5,0.6-0.8,1c-0.4,0.5-0.7,1-1,1.5c-0.8,1.3-1.1,2-0.7,2.1
	c0.3,0.1,0.9-0.1,1.7-0.5c0.3-0.1,0.6-0.3,0.9-0.5c0.1-0.1,0.2-0.2,0.4-0.2c0.1-0.1,0.2-0.1,0.3-0.2c0.4-0.3,0.8-0.6,1.2-0.9
	c0.1-0.1,0.2-0.1,0.4-0.1C53.6,20.9,53.7,21,53.7,21.1z M64.4,21.1c0.1,0.2,0.1,0.4-0.1,0.6c-1.5,1.3-2.9,2.1-4.2,2.4
	c-1.4,0.3-2-0.1-1.7-1.3c-0.9,0.7-1.8,1.1-2.6,1.2c-0.9,0.1-1.5-0.1-1.9-0.7c-0.3-0.5-0.3-1.1-0.1-1.8c-0.3,0.2-0.5,0.4-0.7,0.5
	c-0.1,0-0.2,0.1-0.3,0.1c-0.1,0-0.2-0.1-0.3-0.1c-0.1-0.1-0.1-0.2-0.1-0.3c0-0.1,0.1-0.2,0.1-0.3c0.1-0.1,0.2-0.2,0.3-0.3l0.1-0.1
	l0.1-0.1c0.1-0.1,0.2-0.2,0.3-0.3c0,0,0.1,0,0.1-0.1c0.1-0.1,0.1-0.1,0.2-0.2c0.2-0.2,0.4-0.3,0.6-0.4c0.5-0.4,0.9-0.6,1-0.7
	c1-0.6,1.9-0.9,2.7-1c0.7-0.1,1.5-0.1,2.2,0c0.3,0,0.4,0.2,0.4,0.5c0,0.3-0.2,0.4-0.5,0.4c-1.3-0.1-2.6,0.2-3.9,1
	c-0.9,0.6-1.4,1.2-1.6,1.7c-0.2,0.5,0,0.8,0.4,1c0.5,0.2,1.1,0.1,1.8-0.3c0.9-0.4,1.8-1.1,2.7-2.2c0.4-0.7,0.9-1.2,1.3-1.7
	c0.2-0.2,0.4-0.2,0.6,0c0.2,0.2,0.2,0.4,0.1,0.6l0,0.1l0,0.1c-0.2,0.3-0.5,0.7-0.9,1.3c-0.5,0.7-0.8,1.3-1.1,1.8
	c-0.4,0.7-0.2,1,0.4,0.8c0.2-0.1,0.5-0.2,0.9-0.3c0.3-0.1,0.5-0.3,0.8-0.4c0.4-0.2,0.8-0.5,1.2-0.8c0.2-0.1,0.3-0.2,0.5-0.4
	c0.1-0.1,0.3-0.2,0.4-0.3c0.1-0.1,0.2-0.1,0.4-0.1C64.2,20.9,64.3,21,64.4,21.1z M90.2,21.1c0.1,0.2,0.1,0.4-0.1,0.6
	c-0.2,0.2-0.5,0.5-1,0.8c-0.8,0.6-2.5,1.6-5.2,3.1c-1.6,3.4-2.7,5.7-3.5,6.9c-1.2,2.1-2.4,3.5-3.6,4.3c-1.2,0.8-2.3,0.9-3.3,0.4
	c-1.1-0.6-1.3-1.6-0.8-3.1c0.7-1.9,2.1-3.6,4.3-5.3c0.8-0.7,1.9-1.3,3.1-2l1.6-0.9l1.6-0.9l1.9-3.8c-0.7,0.7-1.3,1.3-1.8,1.7
	c-0.4,0.3-0.9,0.6-1.4,0.8c-0.6,0.3-1.1,0.5-1.5,0.6c-1.2,0.3-1.9,0.1-2.1-0.7c-0.1-0.2,0-0.4,0-0.7c0.1-0.4,0.2-0.7,0.5-1.1
	l-0.6,0.5c-0.1,0-0.1,0.1-0.3,0.1c-0.1,0-0.2-0.1-0.3-0.1c-0.1-0.1-0.1-0.2-0.1-0.3c0-0.1,0.1-0.2,0.1-0.3c0.1-0.1,0.2-0.2,0.6-0.5
	c0.2-0.1,0.3-0.3,0.5-0.4c0.2-0.2,0.4-0.3,0.6-0.5c0.2-0.2,0.4-0.4,0.6-0.6c0.1-0.2,0.3-0.3,0.5-0.5c0.4-0.4,0.6-0.7,0.7-0.8
	c0.1-0.1,0.2-0.2,0.4-0.2c0.2,0,0.3,0,0.4,0.1c0.2,0.2,0.1,0.5-0.2,1.1l-0.2,0.2l-0.2,0.3c-0.2,0.2-0.3,0.4-0.4,0.6
	c-0.4,0.6-0.7,1.2-1.1,1.8c0,0.1-0.1,0.1-0.1,0.3c-0.1,0.2-0.1,0.3-0.2,0.4c0,0.1,0,0.2,0.1,0.3c0.1,0.1,0.2,0.2,0.3,0.2
	c0.5,0,1.1-0.2,1.8-0.5c0.9-0.4,1.7-1,2.4-1.7c0.4-0.3,0.8-0.8,1.4-1.4c0.5-0.6,0.9-1.1,1.2-1.6c0.2-0.2,0.3-0.2,0.6-0.1
	c0.2,0.2,0.3,0.4,0.1,0.6c-0.8,1.5-1.7,3.4-2.8,5.7c0.6-0.3,1.3-0.7,2-1.2c0.8-0.5,1.3-0.8,1.6-1c0.6-0.4,1.1-0.8,1.4-1.1
	c0.1-0.1,0.3-0.1,0.4-0.1C90.1,20.9,90.2,21,90.2,21.1z M76.3,36.1c0.9-0.6,1.8-1.6,2.7-3.1c0.7-1.2,1.9-3.4,3.5-6.6
	c-3.8,2.2-6.5,4.3-8.2,6.5c-0.4,0.5-0.7,1-0.9,1.5c-0.4,1.1-0.2,1.9,0.5,2.2C74.7,36.8,75.5,36.7,76.3,36.1z M96.9,19.5
	c0.4-0.6,0.7-1.1,1-1.4c0.2-0.2,0.4-0.2,0.6-0.1c0.2,0.2,0.2,0.4,0.1,0.6c0,0,0,0.1-0.1,0.1l-0.1,0.1L98.4,19
	c-0.1,0.2-0.2,0.4-0.3,0.6c-0.3,0.6-0.7,1.1-0.9,1.6c-0.8,1.5-1.1,2.2-0.9,2.3c0.4,0.1,1-0.1,2-0.6c0.9-0.5,1.8-1.1,2.7-1.8
	c0.1-0.1,0.2-0.1,0.4-0.1c0.1,0,0.2,0,0.3,0.1c0.1,0.2,0.1,0.4-0.1,0.6c-0.3,0.3-0.8,0.7-1.5,1.2c-1,0.7-1.9,1.2-2.6,1.5
	c-0.9,0.3-1.6,0.3-2-0.2c-0.4-0.5-0.3-1.3,0.3-2.5c-1.7,1.2-3,1.6-3.7,1.3c-0.5-0.2-0.7-0.6-0.7-1.3c-0.1,0.1-0.1,0.2-0.2,0.3
	l-0.9,1.7c-0.2,0.1-0.4,0-0.5-0.1c-0.1-0.2-0.2-0.4-0.1-0.6c0.1-0.2,0.4-0.8,0.9-1.8c-0.3,0.2-0.5,0.4-0.7,0.6
	c-0.1,0.1-0.2,0.1-0.3,0.2l-0.2,0.1c-0.1,0-0.1,0.1-0.3,0.1c-0.1,0-0.2-0.1-0.3-0.1c-0.1-0.1-0.1-0.2-0.1-0.3c0-0.1,0.1-0.2,0.1-0.3
	c0.1-0.1,0.2-0.2,0.4-0.3c0.1-0.1,0.2-0.2,0.3-0.2c0.1-0.1,0.2-0.2,0.3-0.3c0,0,0.1-0.1,0.1-0.1c0.1,0,0.1-0.1,0.2-0.2
	c0.2-0.2,0.4-0.3,0.6-0.5c0.6-0.6,1.1-1.1,1.7-1.7c0.2-0.2,0.4-0.2,0.6,0c0.2,0.2,0.2,0.4,0.1,0.5c-0.1,0.2-0.3,0.4-0.4,0.6l0.1-0.1
	c-0.5,1.2-0.7,2.2-0.6,2.8c0.1,0.1,0.3,0.2,0.7,0.1c0.4-0.1,0.9-0.3,1.5-0.7C95.2,20.9,96,20.3,96.9,19.5z M113.1,21.1
	c0.1,0.2,0.1,0.4-0.1,0.6c-0.3,0.3-0.6,0.5-0.9,0.7c-2,1.5-3.5,2.2-4.6,2.2c-1.1,0-1.3-0.9-0.5-2.6l-0.3,0.3c-2.2,1.7-3.8,2.4-4.7,2
	c-0.8-0.3-0.9-1.2-0.3-2.7c-0.2,0.1-0.3,0.3-0.5,0.4l-0.2,0.1l-0.2,0.1c-0.1,0-0.2,0.1-0.3,0.1c-0.1,0-0.2-0.1-0.3-0.1
	c-0.1-0.1-0.1-0.2-0.1-0.3c0-0.1,0.1-0.2,0.1-0.3c0.1-0.1,0.2-0.2,0.5-0.5c0.1-0.1,0.3-0.2,0.4-0.3c0.2-0.2,0.3-0.3,0.5-0.5
	c0.3-0.3,0.7-0.7,1.2-1.1c0.1-0.2,0.3-0.3,0.5-0.5l0.3-0.2l0.2-0.2c0.2-0.2,0.4-0.2,0.6,0c0.2,0.2,0.2,0.4,0,0.6l-0.1,0.1l-0.1,0.1
	c-0.2,0.3-0.5,0.6-0.7,0.9c-0.3,0.4-0.5,0.8-0.7,1.2c-0.6,1-0.8,1.8-0.7,2.4c0.1,0.1,0.3,0.2,0.7,0.1c0.4-0.1,0.9-0.3,1.5-0.7
	c1.6-1,3.3-2.5,5.1-4.7c0.2-0.3,0.5-0.3,0.7-0.1c0.3,0.2,0.3,0.5,0.1,0.8c-2.1,2.9-3,4.5-2.7,4.9c0.1,0.1,0.5,0,1.4-0.4
	c0.3-0.2,0.6-0.3,1-0.5c0.3-0.2,0.5-0.3,0.7-0.4c0.4-0.2,1-0.7,1.8-1.3c0.1-0.1,0.2-0.1,0.4-0.1C112.9,20.9,113,21,113.1,21.1z
	 M114.5,20.7l-0.2,0.8c0.7-0.7,1.6-1.3,2.6-2c0.5-0.5,1-0.8,1.6-1c0.3-0.1,0.6,0,0.7,0.3c0.1,0.3,0,0.5-0.3,0.7
	c-0.6,0.4-1.2,0.7-1.7,1.1c-0.3,0.4-0.6,0.8-0.9,1.3c-0.3,0.5-0.4,1-0.3,1.3c0.2,0.8,1.3,0.6,3.5-0.8c0.6-0.4,1.2-0.8,1.8-1.3
	c0.1-0.1,0.2-0.1,0.4-0.1c0.1,0,0.2,0,0.3,0.1c0.1,0.2,0.1,0.4-0.2,0.6c-0.3,0.3-0.7,0.6-1.2,0.9c-0.3,0.2-0.7,0.5-1,0.7
	c-0.4,0.3-0.9,0.5-1.3,0.7c-1,0.5-1.8,0.6-2.4,0.4c-0.8-0.3-1-1-0.7-2.2c-0.6,0.5-1.2,1.1-1.9,1.8c-0.2,0.2-0.4,0.2-0.7,0.1
	c-0.3-0.2-0.3-0.4-0.2-0.6l0.3-0.8l0.3-0.8c-0.2,0.2-0.4,0.3-0.5,0.4c-0.2,0.1-0.4,0.1-0.5-0.1c-0.1-0.1-0.1-0.2-0.1-0.3
	c0-0.1,0.1-0.2,0.1-0.3c0.1-0.1,0.2-0.2,0.5-0.5c0.2-0.1,0.3-0.3,0.5-0.4c0.2-0.2,0.4-0.3,0.6-0.5c0.6-1.5,1.1-2.8,1.5-3.7
	c1-0.3,1.3-0.1,0.9,0.5L114.5,20.7z M132.6,21.1c0.1,0.2,0.1,0.4-0.1,0.6c-1.5,1.3-2.9,2.1-4.2,2.4c-1.4,0.3-2-0.1-1.7-1.3
	c-0.9,0.7-1.8,1.1-2.6,1.2c-0.9,0.1-1.5-0.1-1.9-0.7c-0.3-0.5-0.3-1.1-0.1-1.8c-0.3,0.2-0.5,0.4-0.7,0.5c-0.1,0-0.2,0.1-0.3,0.1
	c-0.1,0-0.2-0.1-0.3-0.1c-0.1-0.1-0.1-0.2-0.1-0.3c0-0.1,0.1-0.2,0.1-0.3c0.1-0.1,0.2-0.2,0.3-0.3l0.1-0.1l0.1-0.1
	c0.1-0.1,0.2-0.2,0.3-0.3c0,0,0.1,0,0.1-0.1c0.1-0.1,0.1-0.1,0.2-0.2c0.2-0.2,0.4-0.3,0.6-0.4c0.5-0.4,0.9-0.6,1-0.7
	c1-0.6,1.9-0.9,2.7-1c0.7-0.1,1.5-0.1,2.2,0c0.3,0,0.4,0.2,0.4,0.5c0,0.3-0.2,0.4-0.5,0.4c-1.3-0.1-2.6,0.2-3.9,1
	c-0.9,0.6-1.4,1.2-1.6,1.7c-0.2,0.5,0,0.8,0.4,1c0.5,0.2,1.1,0.1,1.8-0.3c0.9-0.4,1.8-1.1,2.7-2.2c0.4-0.7,0.9-1.2,1.3-1.7
	c0.2-0.2,0.4-0.2,0.6,0c0.2,0.2,0.2,0.4,0.1,0.6l0,0.1l0,0.1c-0.2,0.3-0.5,0.7-0.9,1.3c-0.5,0.7-0.8,1.3-1.1,1.8
	c-0.4,0.7-0.2,1,0.4,0.8c0.3-0.1,0.5-0.2,0.9-0.3c0.3-0.1,0.5-0.3,0.8-0.4c0.4-0.2,0.8-0.5,1.2-0.8c0.2-0.1,0.3-0.2,0.5-0.4
	c0.1-0.1,0.3-0.2,0.4-0.3c0.1-0.1,0.2-0.1,0.4-0.1C132.4,20.9,132.5,21,132.6,21.1z M131.6,21.7c0.5-0.9,0.8-1.4,1-1.6l0.3-0.2
	l0.2-0.2c0.2-0.2,0.4-0.2,0.6,0c0.2,0.2,0.2,0.4,0,0.6l-0.1,0.1l-0.1,0.1c-0.2,0.3-0.5,0.6-0.7,0.9c-0.5,0.8-0.7,1.5-0.6,2.2
	c0.1,0.1,0.3,0.2,0.7,0.1c0.4-0.1,0.9-0.3,1.5-0.7c1.6-1,3.3-2.5,5.1-4.7c0.2-0.3,0.5-0.3,0.7-0.1c0.3,0.2,0.3,0.5,0.1,0.8
	c-2.1,2.9-3,4.5-2.7,4.9c0.1,0.1,0.5,0,1.4-0.4c0.3-0.2,0.6-0.3,1-0.5c0.3-0.2,0.5-0.3,0.7-0.4c0.4-0.2,1-0.7,1.8-1.3
	c0.1-0.1,0.2-0.1,0.4-0.1c0.1,0,0.2,0,0.3,0.1c0.1,0.2,0.1,0.4-0.1,0.6c-0.3,0.3-0.6,0.5-0.9,0.7c-2,1.5-3.5,2.2-4.6,2.2
	c-1.1,0-1.3-0.9-0.5-2.6l-0.3,0.3c-2.2,1.7-3.9,2.4-4.9,2.2C131.2,23.5,131.1,22.6,131.6,21.7z M144.9,23.3c0.1-0.1,0.2-0.1,0.3-0.3
	c0.1-0.1,0.2-0.1,0.2-0.2l0.3-0.3c0.2-0.2,0.3-0.4,0.3-0.5c0,0,0-0.1,0-0.2c-0.2-0.1-0.5,0-1,0.3c-0.2,0.1-0.4,0.2-0.6,0.3
	c-0.2,0.1-0.3,0.2-0.4,0.3l-0.1,0.1c0,0,0,0.1-0.1,0.1c0,0-0.1,0-0.1,0.1c-0.1,0.3-0.2,0.5-0.1,0.6C144,23.6,144.4,23.5,144.9,23.3z
	 M144.6,21.3c0.2-0.1,0.4-0.2,0.5-0.2c0.9-0.3,1.5-0.2,1.7,0.5c0,0.2,0,0.4,0,0.6c0.5-0.3,1.1-0.7,1.6-1.2c0.1-0.1,0.2-0.1,0.4-0.1
	c0.1,0,0.2,0,0.3,0.1c0.1,0.2,0.1,0.4-0.2,0.6c-0.3,0.3-0.8,0.7-1.5,1.2c-1,0.7-1.8,1.2-2.6,1.5c-0.9,0.3-1.6,0.3-2-0.2
	c-0.5-0.5-0.4-1.4,0.4-2.7c-0.4,0.3-0.7,0.5-0.9,0.7c-0.1,0-0.1,0.1-0.3,0.1c-0.1,0-0.2-0.1-0.3-0.1c-0.1-0.1-0.1-0.2-0.1-0.3
	c0-0.1,0.1-0.2,0.1-0.3c0.1-0.1,0.2-0.2,0.6-0.5c0.2-0.1,0.3-0.3,0.5-0.4c0.2-0.2,0.4-0.3,0.6-0.5c0.6-0.6,1.2-1.2,1.9-2
	c0.2-0.2,0.4-0.2,0.6-0.1c0.2,0.2,0.2,0.4,0.1,0.6l-0.1,0.1c0,0.1-0.1,0.1-0.1,0.2c-0.1,0.2-0.2,0.4-0.3,0.6
	c-0.3,0.6-0.6,1.1-0.9,1.6C144.7,21.2,144.6,21.3,144.6,21.3z M156,19.5c0.4-0.6,0.7-1.1,1-1.4c0.2-0.2,0.4-0.2,0.6-0.1
	c0.2,0.2,0.3,0.4,0.1,0.6c0,0,0,0.1-0.1,0.1l-0.1,0.1l-0.1,0.1c-0.1,0.2-0.2,0.4-0.3,0.6c-0.3,0.6-0.7,1.1-0.9,1.6
	c-0.8,1.5-1.1,2.2-0.9,2.3c0.4,0.1,1-0.1,2-0.6c0.9-0.5,1.8-1.1,2.7-1.8c0.1-0.1,0.3-0.1,0.4-0.1c0.1,0,0.2,0,0.3,0.1
	c0.1,0.2,0.1,0.4-0.1,0.6c-0.3,0.3-0.8,0.7-1.5,1.2c-1,0.7-1.9,1.2-2.6,1.5c-0.9,0.3-1.6,0.3-2-0.2c-0.4-0.5-0.3-1.3,0.3-2.5
	c-1.7,1.2-3,1.6-3.7,1.3c-0.5-0.2-0.7-0.6-0.7-1.3c-0.1,0.1-0.1,0.2-0.2,0.3l-0.9,1.7c-0.2,0.1-0.4,0-0.5-0.1
	c-0.1-0.2-0.2-0.4-0.1-0.6c0.1-0.2,0.4-0.8,0.9-1.8c-0.3,0.2-0.5,0.4-0.7,0.6c-0.1,0.1-0.2,0.1-0.3,0.2l-0.2,0.1
	c-0.1,0-0.1,0.1-0.3,0.1c-0.1,0-0.2-0.1-0.3-0.1c-0.1-0.1-0.1-0.2-0.1-0.3c0-0.1,0.1-0.2,0.1-0.3c0.1-0.1,0.2-0.2,0.4-0.3
	c0.1-0.1,0.2-0.2,0.3-0.2c0.1-0.1,0.2-0.2,0.3-0.3c0,0,0.1-0.1,0.1-0.1c0.1,0,0.1-0.1,0.2-0.2c0.2-0.2,0.4-0.3,0.6-0.5
	c0.6-0.6,1.1-1.1,1.7-1.7c0.2-0.2,0.4-0.2,0.6,0c0.2,0.2,0.2,0.4,0.1,0.5c-0.1,0.2-0.3,0.4-0.4,0.6l0.1-0.1
	c-0.5,1.2-0.7,2.2-0.6,2.8c0.1,0.1,0.3,0.2,0.7,0.1c0.4-0.1,0.9-0.3,1.5-0.7C154.3,20.9,155.1,20.3,156,19.5z M170.1,21.1
	c0.1,0.2,0.1,0.4-0.1,0.6l-0.2,0.2l-0.2,0.2c-0.2,0.2-0.4,0.3-0.5,0.4c-1.4,1-2.8,1.3-4.3,0.9c-1.2,0.9-2.2,1.1-3.1,0.7
	c-0.9-0.4-1.1-1.3-0.7-2.7l-0.3,0.3l-0.7,0.5c-0.1,0-0.2,0.1-0.3,0.1c-0.1,0-0.2-0.1-0.3-0.1c-0.1-0.1-0.1-0.2-0.1-0.3
	c0-0.1,0.1-0.2,0.1-0.3c0.1,0,0.1-0.1,0.2-0.2l0.2-0.1l0.2-0.1c0.3-0.3,0.7-0.6,1-0.9l1-1c0.2-0.2,0.4-0.2,0.6,0
	c0.6-1.1,1.5-1.8,2.6-2c1.2-0.3,1.9,0.2,2.1,1.4c0.2,0.9-0.2,2-1,3.2c-0.3,0.4-0.6,0.8-0.8,1c0.4,0.1,0.8,0.1,1.2,0
	c0.6-0.1,1.1-0.4,1.7-0.8c0.4-0.3,0.7-0.5,1-0.8c0.1-0.1,0.3-0.1,0.4-0.1C169.9,20.9,170,21,170.1,21.1z M164.3,22.4
	c0.7-0.7,1.3-1.5,1.7-2.4c0.4-0.9,0.4-1.5,0-1.8l-0.1,0l-0.1-0.1c-0.1,0-0.2,0-0.3-0.1c-0.7,0-1.4,0.3-1.9,1
	c-0.5,0.7-0.7,1.5-0.3,2.3C163.5,21.8,163.8,22.1,164.3,22.4z M162.4,23.3c0.4,0,0.8-0.2,1.2-0.4c-0.3-0.2-0.6-0.5-0.8-0.8
	c-0.4-0.6-0.6-1.2-0.5-1.9c-0.6,0.9-0.8,1.7-0.7,2.4C161.7,23.1,162,23.4,162.4,23.3z M179.5,21.1c0.1,0.2,0.1,0.4-0.2,0.6
	c-0.3,0.3-0.8,0.7-1.5,1.2l-0.2,0.1l-0.3,0.2c-0.2,0.1-0.4,0.2-0.5,0.3c-0.5,0.3-0.9,0.5-1.4,0.6c-1.2,0.5-2.3,0.6-3.4,0.3
	c-0.8-0.2-1.4-0.6-1.7-1.2c-0.3-0.6-0.3-1.1-0.1-1.7c-0.3,0.2-0.5,0.4-0.7,0.5c-0.1,0-0.1,0.1-0.3,0.1c-0.1,0-0.2-0.1-0.3-0.1
	c-0.1-0.1-0.1-0.2-0.1-0.3c0-0.1,0.1-0.2,0.1-0.3c0.1-0.1,0.2-0.2,0.3-0.3l0.1-0.1l0.1-0.1c0.1-0.1,0.2-0.2,0.3-0.3
	c0.1,0,0.2-0.2,0.5-0.4c0.1-0.1,0.2-0.2,0.4-0.3l0.5-0.3c0.8-0.6,1.3-1,1.4-1.1c0,0,0.1,0,0.1-0.1l0.1-0.1l0.1-0.1
	c0.2-0.2,0.4-0.3,0.5-0.4c0.4-0.3,0.7-0.5,0.8-0.4c1-0.7,1.8-0.7,2.4-0.1c0.3,0.3,0.3,0.6-0.1,0.9c-0.4,0.3-1,0.4-2,0.2
	c-0.1,0-0.2,0.1-0.4,0.2c-0.1,0.1-0.2,0.1-0.3,0.2c-0.1,0.1-0.3,0.1-0.4,0.2c-0.7,0.4-1.2,1-1.6,1.6c-0.4,0.7-0.6,1.3-0.5,1.8
	c0.1,0.4,0.5,0.7,1.1,0.9c1.3,0.3,2.8-0.1,4.6-1.2c0.5-0.3,1-0.7,1.7-1.2c0.1-0.1,0.2-0.1,0.4-0.1C179.3,20.9,179.4,21,179.5,21.1z
	 M195.5,21.1c0.1,0.2,0.1,0.4-0.1,0.6l-1.1,0.9c-0.3,0.2-0.7,0.5-1.1,0.7c-0.5,0.3-1,0.6-1.5,0.8c-1.2,0.6-2.1,0.7-2.6,0.3
	c-0.3-0.2-0.3-0.6-0.1-1.2c0.1-0.2,0.2-0.5,0.4-0.9l0.3-0.5l0.3-0.5c0.3-0.6,0.6-1.1,0.7-1.5c0.1-0.1,0.1-0.3,0.1-0.4
	c0-0.1,0.1-0.1,0.1-0.2c-0.9-0.1-2.1,0.4-3.6,1.5c-0.6,0.4-1.1,0.9-1.7,1.5c-0.5,0.5-0.9,0.9-1.3,1.4c-0.2,0.2-0.4,0.3-0.6,0.1
	c-0.3-0.2-0.3-0.4-0.1-0.8l0.1-0.1l0.1-0.2c0.1-0.1,0.2-0.3,0.3-0.4c0.2-0.4,0.4-0.8,0.6-1.1c0.6-1.1,0.8-1.8,0.8-2.1
	c-0.3,0-0.8,0.1-1.4,0.5c-0.5,0.3-1,0.6-1.6,1.1c-0.4,0.4-0.9,0.8-1.4,1.4c-0.2,0.2-0.4,0.4-0.6,0.6c-0.2,0.2-0.3,0.3-0.5,0.5
	l-0.4,0.5c-0.1,0.1-0.3,0.1-0.4,0c-0.2-0.1-0.3-0.2-0.2-0.4c0-0.1,0.4-0.9,1.2-2.3l-0.1,0.1l-0.1,0.1c-0.1,0.1-0.2,0.2-0.2,0.2
	c-0.4,0.3-0.7,0.6-0.9,0.7c-0.2,0.1-0.4,0.1-0.5-0.1c-0.1-0.1-0.1-0.2-0.1-0.3c0-0.1,0.1-0.2,0.1-0.3c0.1-0.1,0.2-0.2,0.5-0.5
	c0.2-0.1,0.3-0.3,0.4-0.4c0.2-0.2,0.3-0.3,0.5-0.5c0.3-0.3,0.6-0.6,1-1l0.2-0.2l0.2-0.2c0.1-0.2,0.2-0.3,0.3-0.3
	c0.4-0.4,0.7-0.5,0.9-0.3c0.2,0.1,0.2,0.3,0.1,0.5c-0.1,0.2-0.4,0.8-1.1,2c1.6-1.4,2.8-2.2,3.9-2.3c1.1,0,1.4,0.7,0.8,2.2
	c1.2-1.1,2.4-1.8,3.6-2.1c0.9-0.2,1.6-0.2,2,0.1c0.5,0.4,0.5,1.1-0.1,2.2c-0.2,0.3-0.4,0.8-0.8,1.4l-0.2,0.3l-0.2,0.3
	c-0.1,0.2-0.2,0.4-0.3,0.5l-0.1,0.2c0,0.1-0.1,0.1-0.1,0.2c0,0.1,0.2,0.1,0.5,0c0.4-0.1,0.9-0.3,1.5-0.6c0.2-0.1,0.5-0.2,0.7-0.4
	c0.2-0.1,0.4-0.2,0.5-0.3c0.7-0.4,1.2-0.8,1.7-1.3c0.1-0.1,0.2-0.1,0.4-0.1C195.4,20.9,195.5,21,195.5,21.1z M197.2,23.3
	c0.1-0.1,0.2-0.1,0.3-0.3c0.1-0.1,0.2-0.1,0.2-0.2l0.3-0.3c0.2-0.2,0.3-0.4,0.3-0.5c0,0,0-0.1,0-0.2c-0.2-0.1-0.5,0-1,0.3
	c-0.2,0.1-0.4,0.2-0.6,0.3c-0.2,0.1-0.3,0.2-0.4,0.3l-0.1,0.1c0,0,0,0.1-0.1,0.1c0,0-0.1,0-0.1,0.1c-0.1,0.3-0.2,0.5-0.1,0.6
	C196.3,23.6,196.7,23.5,197.2,23.3z M196.9,21.3c0.2-0.1,0.4-0.2,0.5-0.2c0.9-0.3,1.5-0.2,1.7,0.5c0,0.2,0,0.4,0,0.6
	c0.5-0.3,1.1-0.7,1.6-1.2c0.1-0.1,0.2-0.1,0.4-0.1c0.1,0,0.2,0,0.3,0.1c0.1,0.2,0.1,0.4-0.2,0.6c-0.3,0.3-0.8,0.7-1.5,1.2
	c-1,0.7-1.8,1.2-2.6,1.5c-0.9,0.3-1.6,0.3-2-0.2c-0.5-0.5-0.4-1.4,0.4-2.7c-0.4,0.3-0.7,0.5-0.9,0.7c-0.1,0-0.1,0.1-0.3,0.1
	c-0.1,0-0.2-0.1-0.3-0.1c-0.1-0.1-0.1-0.2-0.1-0.3c0-0.1,0.1-0.2,0.1-0.3c0.1-0.1,0.3-0.2,0.6-0.5c0.2-0.1,0.3-0.3,0.5-0.4
	c0.2-0.2,0.4-0.3,0.6-0.5c0.6-0.6,1.2-1.2,1.9-2c0.2-0.2,0.4-0.2,0.6-0.1c0.2,0.2,0.2,0.4,0.1,0.6l-0.1,0.1c0,0.1-0.1,0.1-0.1,0.2
	c-0.1,0.2-0.2,0.4-0.3,0.6c-0.3,0.6-0.6,1.1-0.9,1.6C197,21.2,196.9,21.3,196.9,21.3z M218,17.8c0.2,0.1,0.5,0.2,0.9,0.2
	c0.3,0,0.7,0,1.2,0c0.2,0,0.4,0,0.5-0.1c0.1,0,0.3,0,0.4,0l0.3,0c0.3,0,0.5,0.1,0.6,0.5c0,0.3-0.1,0.5-0.5,0.6h0l-0.5,0l-0.5,0h-1.1
	c-0.8,0-1.4-0.2-1.8-0.4c-0.1-0.1-0.2-0.2-0.2-0.3c0-0.1,0-0.2,0.1-0.3C217.6,17.7,217.8,17.7,218,17.8z M49.8,50.3
	c0.1,0.2,0.1,0.4-0.2,0.6c-0.3,0.3-0.8,0.7-1.5,1.2l-0.2,0.1l-0.3,0.2c-0.2,0.1-0.4,0.2-0.5,0.3c-0.5,0.3-0.9,0.5-1.4,0.6
	c-1.2,0.5-2.3,0.6-3.4,0.3c-0.8-0.2-1.4-0.6-1.7-1.2c-0.3-0.6-0.3-1.1-0.1-1.7c-0.3,0.2-0.5,0.4-0.7,0.5c-0.1,0-0.1,0.1-0.3,0.1
	c-0.1,0-0.2-0.1-0.3-0.1c-0.1-0.1-0.1-0.2-0.1-0.3c0-0.1,0.1-0.2,0.1-0.3s0.2-0.2,0.3-0.3l0.1-0.1l0.1-0.1c0.1-0.1,0.2-0.2,0.3-0.3
	c0.1,0,0.2-0.2,0.5-0.4c0.1-0.1,0.2-0.2,0.4-0.3l0.5-0.3c0.8-0.6,1.3-1,1.4-1.1c0,0,0.1,0,0.1-0.1l0.1-0.1l0.1-0.1
	c0.2-0.2,0.4-0.3,0.5-0.4c0.4-0.3,0.7-0.5,0.8-0.4c1-0.7,1.8-0.7,2.4-0.1c0.3,0.3,0.3,0.6-0.1,0.9c-0.4,0.3-1,0.4-2,0.2
	c-0.1,0-0.2,0.1-0.4,0.2c-0.1,0.1-0.2,0.1-0.3,0.2c-0.1,0.1-0.3,0.1-0.4,0.2c-0.7,0.4-1.2,1-1.6,1.6c-0.4,0.7-0.6,1.3-0.5,1.8
	c0.1,0.4,0.5,0.7,1.1,0.9c1.3,0.3,2.8-0.1,4.6-1.2c0.5-0.3,1-0.7,1.7-1.2c0.1-0.1,0.2-0.1,0.4-0.1C49.6,50.2,49.7,50.2,49.8,50.3z
	 M60.1,50.3c0.1-0.1,0.2-0.1,0.4-0.1c0.1,0,0.2,0,0.3,0.1c0.1,0.2,0.1,0.4-0.1,0.6c-0.5,0.4-1,0.8-1.5,1.2c-0.8,0.6-1.6,0.9-2.2,1.1
	c-0.6,0.1-1.4,0.1-2.4,0c-0.5,0.4-1.1,0.6-1.6,0.7c-0.7,0.1-1.2,0.1-1.6-0.1c-0.4-0.1-0.6-0.4-0.7-0.7c-0.1-0.3,0-0.5,0.2-0.8
	c0.2-0.2,0.6-0.4,1.1-0.5c0.3-0.1,0.7,0,1.2,0l0.6,0.1l0.6,0.1c0.8-0.6,1.5-1.4,1.9-2.3c0.4-0.9,0.4-1.3,0-1.4h0
	c-0.6,0-1.3,0.2-2,0.6c-0.5,0.3-1.1,0.8-1.7,1.4c-0.4,0.4-0.8,0.8-1.3,1.3l-0.3,0.3l-0.2,0.3c-0.2,0.2-0.3,0.3-0.4,0.4
	c-0.5,0.5-0.9,0.5-1.2-0.1c-0.1-0.2,0.1-0.7,0.4-1.6c-0.1,0.1-0.2,0.2-0.3,0.3c-0.1,0-0.2,0.1-0.3,0.1c-0.1,0-0.2-0.1-0.3-0.1
	c-0.1-0.1-0.1-0.2-0.1-0.3c0-0.1,0.1-0.2,0.1-0.3c0.1-0.1,0.2-0.2,0.5-0.5c0.2-0.1,0.3-0.3,0.5-0.4c0.2-0.2,0.4-0.3,0.6-0.5
	c0.5-1.2,1.2-2.6,2-4.1c0.3-0.6,0.6-1.2,0.9-1.7c0.2-0.4,0.4-0.7,0.5-0.9c2.5-4.1,4.5-6.9,6.1-8.3c0.8-0.7,1.3-1,1.6-0.9
	c1,0,1.3,0.7,1,1.9c-0.3,1.1-1.1,2.6-2.3,4.4c-2.6,3.7-5.5,7.1-8.8,10.1l-0.2,0.5c0.8-0.9,1.6-1.6,2.4-2c1-0.6,2-0.9,2.9-0.9
	c1.1,0.1,1.5,0.8,1.2,1.9c-0.3,1.1-0.9,2.1-2,3.1c0.7,0,1.4-0.1,2.1-0.5c0.2-0.1,0.5-0.2,0.7-0.4c0.1,0,0.2-0.1,0.3-0.2l0.1-0.1
	l0.1-0.1C59.1,51,59.6,50.7,60.1,50.3z M61.2,34.3c-0.8,0-2.2,1.5-4.2,4.6c-1.8,2.7-3.4,5.7-5,8.9c2.8-2.8,5.2-5.6,7.2-8.5
	C61.2,36.4,61.8,34.8,61.2,34.3C61.3,34.3,61.3,34.3,61.2,34.3z M52.2,53.1c0.3,0,0.6-0.1,0.9-0.2c-0.7-0.2-1.2-0.2-1.6,0L51.4,53
	l0.1,0.1c0,0,0.1,0,0.1,0.1C51.8,53.1,52,53.1,52.2,53.1z M72.2,50.3c0.1,0.2,0.1,0.4-0.1,0.6c-0.3,0.3-0.6,0.5-0.9,0.7
	c-2,1.5-3.5,2.2-4.6,2.2c-1.1,0-1.3-0.9-0.5-2.6l-0.3,0.3c-2.2,1.7-3.8,2.4-4.7,2c-0.8-0.3-0.9-1.2-0.3-2.7
	c-0.2,0.1-0.3,0.3-0.5,0.4l-0.2,0.1L60,51.4c-0.1,0-0.2,0.1-0.3,0.1c-0.1,0-0.2-0.1-0.3-0.1c-0.1-0.1-0.1-0.2-0.1-0.3
	c0-0.1,0.1-0.2,0.1-0.3c0.1-0.1,0.2-0.2,0.5-0.5c0.1-0.1,0.3-0.2,0.4-0.3c0.2-0.2,0.3-0.3,0.5-0.5c0.3-0.3,0.7-0.7,1.2-1.1
	c0.1-0.2,0.3-0.3,0.5-0.5l0.3-0.2l0.2-0.2c0.2-0.2,0.4-0.2,0.6,0c0.2,0.2,0.2,0.4,0,0.6l-0.1,0.1l-0.1,0.1c-0.2,0.3-0.5,0.6-0.7,0.9
	c-0.3,0.4-0.5,0.8-0.7,1.2c-0.6,1-0.8,1.8-0.7,2.4c0.1,0.1,0.3,0.2,0.7,0.1c0.4-0.1,0.9-0.3,1.5-0.7c1.6-1,3.3-2.5,5.1-4.7
	c0.2-0.3,0.5-0.3,0.7-0.1c0.3,0.2,0.3,0.5,0.1,0.8c-2.1,2.9-3,4.5-2.7,4.9c0.1,0.1,0.5,0,1.4-0.4c0.3-0.2,0.6-0.3,1-0.5
	c0.3-0.2,0.5-0.3,0.7-0.4c0.4-0.2,1-0.7,1.8-1.3c0.1-0.1,0.2-0.1,0.4-0.1C72.1,50.2,72.2,50.2,72.2,50.3z M83.1,50.3
	c0.1,0.2,0.1,0.4-0.1,0.6c-0.1,0.1-0.2,0.2-0.3,0.3l-0.3,0.3c-0.3,0.2-0.6,0.4-0.9,0.6c-0.4,0.3-1.2,0.7-2.2,1.2l-0.6,0.3L78,54.1
	l-1.3,0.7l-1.2,2.3c-0.5,1-0.9,1.8-1.2,2.3c-0.9,1.7-1.7,3.1-2.4,4.1c-1.8,2.7-3.7,3.7-5.5,3.1c-1-0.3-1.4-1.1-1.4-2.2
	c0.1-1.7,1.4-3.5,3.7-5.5c1.7-1.4,4-2.9,7-4.6c0.4-0.8,0.7-1.3,0.9-1.7c-1.1,0.7-2,0.9-2.9,0.8c-0.7-0.1-1.2-0.5-1.4-1.2
	c-0.1-0.4-0.1-0.8,0.1-1.3c-0.3,0.2-0.5,0.4-0.7,0.5c-0.1,0-0.2,0.1-0.3,0.1c-0.1,0-0.2-0.1-0.3-0.1c-0.1-0.1-0.1-0.2-0.1-0.3
	c0-0.1,0.1-0.2,0.1-0.3c0.1-0.1,0.2-0.2,0.3-0.3l0.1-0.1l0.1-0.1c0.1-0.1,0.2-0.2,0.3-0.3c0,0,0.1,0,0.1-0.1
	c0.1-0.1,0.1-0.1,0.2-0.2c0.2-0.2,0.4-0.3,0.6-0.4c0.5-0.4,0.9-0.6,1-0.7c1.1-0.6,2.1-0.9,2.9-1c0.8-0.1,1.5-0.1,2.1,0.1
	c0.3,0.1,0.4,0.2,0.3,0.5l0.1-0.2c0.2-0.3,0.5-0.3,0.8-0.1c0.3,0.2,0.3,0.5,0.1,0.8l-0.5,0.6c-0.2,0.2-0.3,0.4-0.5,0.5
	c-0.7,1-1.4,2.2-2,3.5c2-1.1,3-1.7,3.3-1.8c0.6-0.4,1.2-0.8,1.8-1.3c0.1-0.1,0.2-0.1,0.4-0.1C83,50.2,83.1,50.2,83.1,50.3z
	 M67.3,65.9c1.4,0,2.7-1,4.1-3.1c0.5-0.8,1.1-1.9,1.8-3.2c0.2-0.5,0.5-1.1,0.9-1.8l0.9-1.9c-2.9,1.7-5.1,3.3-6.5,4.7
	c-2,1.8-2.8,3.3-2.5,4.6C66.1,65.6,66.6,65.9,67.3,65.9z M75,52.2c0.6-0.2,1.2-0.6,2-1.3c0.6-0.5,1.1-1.1,1.7-1.7l0.5-0.7l-0.1,0
	h-0.1c-0.3,0-0.7,0-1,0c-1.1,0.1-2,0.4-2.9,0.9c-0.7,0.4-1.2,1-1.5,1.5c-0.3,0.5-0.3,1-0.1,1.2C73.7,52.5,74.2,52.5,75,52.2z
	 M92.4,50.3c0.1,0.2,0.1,0.4-0.2,0.6c-0.3,0.3-0.8,0.7-1.5,1.2l-0.2,0.1l-0.3,0.2c-0.2,0.1-0.4,0.2-0.5,0.3
	c-0.5,0.3-0.9,0.5-1.4,0.6c-1.2,0.5-2.3,0.6-3.4,0.3c-0.8-0.2-1.4-0.6-1.7-1.2c-0.3-0.6-0.3-1.1-0.1-1.7c-0.3,0.2-0.5,0.4-0.7,0.5
	c-0.1,0-0.1,0.1-0.3,0.1c-0.1,0-0.2-0.1-0.3-0.1c-0.1-0.1-0.1-0.2-0.1-0.3c0-0.1,0.1-0.2,0.1-0.3c0.1-0.1,0.2-0.2,0.3-0.3l0.1-0.1
	l0.1-0.1c0.1-0.1,0.2-0.2,0.3-0.3c0,0,0.2-0.1,0.3-0.2l0.1-0.1l0.1-0.1l0.3-0.2c0.6-0.9,1.3-1.7,2.3-2.2c1-0.6,2-0.8,2.8-0.6
	c0.4,0.1,0.7,0.3,0.8,0.6c0.4,0.6-0.2,1.2-1.8,1.9c-0.3,0.1-0.6,0.2-0.9,0.3l-0.5,0.2l-0.4,0.1c-0.7,0.2-1.1,0.4-1.2,0.5
	c-0.4,0.7-0.5,1.3-0.3,1.8c0.2,0.4,0.5,0.7,1.1,0.8c1.3,0.3,2.8-0.1,4.6-1.2c0.5-0.3,1-0.7,1.7-1.2c0.1-0.1,0.2-0.1,0.4-0.1
	C92.2,50.2,92.3,50.2,92.4,50.3z M88.6,47.6l-0.1-0.1c-0.1,0-0.1,0-0.2,0c-0.2,0-0.4,0-0.6,0.1c-0.6,0.2-1.2,0.5-2,1.2L85.5,49
	c0.5-0.2,1-0.4,1.5-0.6C87.6,48.1,88.2,47.8,88.6,47.6L88.6,47.6z M108.4,50.3c0.1,0.2,0.1,0.4-0.1,0.6l-1.1,0.9
	c-0.3,0.2-0.7,0.5-1.1,0.7c-0.5,0.3-1,0.6-1.5,0.8c-1.2,0.6-2.1,0.7-2.6,0.3c-0.3-0.2-0.3-0.6-0.1-1.2c0.1-0.2,0.2-0.5,0.4-0.9
	l0.3-0.5l0.3-0.5c0.3-0.6,0.6-1.1,0.7-1.5c0.1-0.1,0.1-0.3,0.1-0.4c0-0.1,0.1-0.1,0.1-0.2c-0.9-0.1-2.1,0.4-3.6,1.5
	c-0.6,0.4-1.1,0.9-1.7,1.5C98,52,97.5,52.5,97.1,53c-0.2,0.2-0.4,0.3-0.6,0.1c-0.2-0.2-0.3-0.4-0.1-0.8l0.1-0.1l0.1-0.2
	c0.1-0.1,0.2-0.3,0.3-0.4c0.2-0.4,0.4-0.8,0.6-1.1c0.6-1.1,0.8-1.8,0.8-2.1c-0.3,0-0.8,0.1-1.4,0.5c-0.5,0.3-1,0.6-1.6,1.1
	c-0.4,0.4-0.9,0.8-1.4,1.4c-0.2,0.2-0.4,0.4-0.6,0.6c-0.2,0.2-0.3,0.3-0.5,0.5L92.4,53c-0.1,0.1-0.3,0.1-0.4,0
	c-0.2-0.1-0.2-0.2-0.2-0.4c0-0.1,0.4-0.9,1.2-2.3l-0.1,0.1l-0.1,0.1c-0.1,0.1-0.2,0.2-0.2,0.2c-0.4,0.3-0.7,0.6-0.9,0.7
	c-0.2,0.1-0.4,0.1-0.5-0.1C91,51.2,90.9,51.1,91,51c0-0.1,0.1-0.2,0.1-0.3c0.1-0.1,0.2-0.2,0.5-0.5c0.2-0.1,0.3-0.3,0.4-0.4
	c0.2-0.2,0.3-0.3,0.5-0.5c0.3-0.3,0.6-0.6,1-1l0.2-0.2l0.2-0.2c0.1-0.2,0.3-0.3,0.3-0.3c0.4-0.4,0.7-0.5,0.9-0.3
	c0.2,0.1,0.2,0.3,0.1,0.5c-0.1,0.2-0.4,0.8-1.1,2c1.6-1.4,2.8-2.2,3.9-2.3c1.1,0,1.4,0.7,0.8,2.2c1.2-1.1,2.4-1.8,3.6-2.1
	c0.9-0.2,1.6-0.2,2,0.1c0.5,0.4,0.5,1.1-0.1,2.2c-0.2,0.3-0.4,0.8-0.8,1.4l-0.2,0.3l-0.2,0.3c-0.1,0.2-0.2,0.4-0.3,0.5l-0.1,0.2
	c0,0.1-0.1,0.1-0.1,0.2c0,0.1,0.2,0.1,0.5,0c0.4-0.1,0.9-0.3,1.5-0.6c0.2-0.1,0.5-0.2,0.7-0.4c0.2-0.1,0.4-0.2,0.5-0.3
	c0.7-0.4,1.2-0.8,1.7-1.3c0.1-0.1,0.3-0.1,0.4-0.1C108.2,50.2,108.3,50.2,108.4,50.3z M117.7,50.3c0.1,0.2,0.1,0.4-0.2,0.6
	c-0.3,0.3-0.8,0.7-1.5,1.2l-0.2,0.1l-0.3,0.2c-0.2,0.1-0.4,0.2-0.5,0.3c-0.5,0.3-0.9,0.5-1.4,0.6c-1.2,0.5-2.3,0.6-3.4,0.3
	c-0.8-0.2-1.4-0.6-1.7-1.2c-0.3-0.6-0.3-1.1-0.1-1.7c-0.3,0.2-0.5,0.4-0.7,0.5c-0.1,0-0.1,0.1-0.3,0.1c-0.1,0-0.2-0.1-0.3-0.1
	c-0.1-0.1-0.1-0.2-0.1-0.3s0.1-0.2,0.1-0.3c0.1-0.1,0.2-0.2,0.3-0.3l0.1-0.1l0.1-0.1c0.1-0.1,0.2-0.2,0.3-0.3c0,0,0.2-0.1,0.3-0.2
	l0.1-0.1l0.1-0.1l0.3-0.2c0.6-0.9,1.3-1.7,2.3-2.2c1-0.6,2-0.8,2.8-0.6c0.4,0.1,0.7,0.3,0.8,0.6c0.4,0.6-0.2,1.2-1.8,1.9
	c-0.3,0.1-0.6,0.2-0.9,0.3l-0.5,0.2l-0.4,0.1c-0.7,0.2-1.1,0.4-1.2,0.5c-0.4,0.7-0.5,1.3-0.3,1.8c0.2,0.4,0.5,0.7,1.1,0.8
	c1.3,0.3,2.8-0.1,4.6-1.2c0.5-0.3,1-0.7,1.7-1.2c0.1-0.1,0.2-0.1,0.4-0.1C117.5,50.2,117.6,50.2,117.7,50.3z M114,47.6l-0.1-0.1
	c-0.1,0-0.1,0-0.2,0c-0.2,0-0.4,0-0.6,0.1c-0.6,0.2-1.2,0.5-2,1.2l-0.2,0.2c0.5-0.2,1-0.4,1.5-0.6C112.9,48.1,113.5,47.8,114,47.6
	L114,47.6z M116.6,50.9c0.5-0.9,0.8-1.4,1-1.6l0.3-0.2l0.2-0.2c0.2-0.2,0.4-0.2,0.6,0c0.2,0.2,0.2,0.4,0,0.6l-0.1,0.1l-0.1,0.1
	c-0.2,0.3-0.5,0.6-0.7,0.9c-0.5,0.8-0.7,1.5-0.6,2.2c0.1,0.1,0.3,0.2,0.7,0.1c0.4-0.1,0.9-0.3,1.5-0.7c1.6-1,3.3-2.5,5.1-4.7
	c0.2-0.3,0.5-0.3,0.7-0.1c0.3,0.2,0.3,0.5,0.1,0.8c-2.1,2.9-3,4.5-2.7,4.9c0.1,0.1,0.5,0,1.4-0.4c0.3-0.2,0.6-0.3,1-0.5
	c0.3-0.2,0.5-0.3,0.7-0.4c0.4-0.2,1-0.7,1.8-1.3c0.1-0.1,0.2-0.1,0.4-0.1c0.1,0,0.2,0,0.3,0.1c0.1,0.2,0.1,0.4-0.1,0.6
	c-0.3,0.3-0.6,0.5-0.9,0.7c-2,1.5-3.5,2.2-4.6,2.2c-1.1,0-1.3-0.9-0.5-2.6l-0.3,0.3c-2.2,1.7-3.9,2.4-4.9,2.2
	C116.2,52.7,116.2,51.8,116.6,50.9z M129.9,52.6c0.1-0.1,0.2-0.1,0.3-0.3c0.1-0.1,0.2-0.1,0.2-0.2l0.3-0.3c0.2-0.2,0.3-0.4,0.3-0.5
	c0,0,0-0.1,0-0.2c-0.2-0.1-0.5,0-1,0.3c-0.2,0.1-0.4,0.2-0.6,0.3c-0.2,0.1-0.3,0.2-0.4,0.3l-0.1,0.1c0,0,0,0.1-0.1,0.1
	c0,0-0.1,0-0.1,0.1c-0.1,0.3-0.2,0.5-0.1,0.6C129.1,52.8,129.5,52.8,129.9,52.6z M129.7,50.6c0.2-0.1,0.4-0.2,0.5-0.2
	c0.9-0.3,1.5-0.2,1.7,0.5c0,0.2,0,0.4,0,0.6c0.5-0.3,1.1-0.7,1.6-1.2c0.1-0.1,0.2-0.1,0.4-0.1c0.1,0,0.2,0,0.3,0.1
	c0.1,0.2,0.1,0.4-0.2,0.6c-0.3,0.3-0.8,0.7-1.5,1.2c-1,0.7-1.8,1.2-2.6,1.5c-0.9,0.3-1.6,0.3-2-0.2c-0.5-0.5-0.4-1.4,0.4-2.7
	c-0.4,0.3-0.7,0.5-0.9,0.7c-0.1,0-0.1,0.1-0.3,0.1c-0.1,0-0.2-0.1-0.3-0.1c-0.1-0.1-0.1-0.2-0.1-0.3c0-0.1,0.1-0.2,0.1-0.3
	c0.1-0.1,0.2-0.2,0.6-0.5c0.2-0.1,0.3-0.3,0.5-0.4c0.2-0.2,0.4-0.3,0.6-0.5c0.6-0.6,1.2-1.2,1.9-2c0.2-0.2,0.4-0.2,0.6-0.1
	c0.2,0.2,0.2,0.4,0.1,0.6l-0.1,0.1c0,0.1-0.1,0.1-0.1,0.2c-0.1,0.2-0.2,0.4-0.3,0.6c-0.3,0.6-0.6,1.1-0.9,1.6
	C129.7,50.5,129.7,50.5,129.7,50.6z M143.6,50.3c0.1,0.2,0.1,0.4-0.2,0.6c-0.3,0.3-0.8,0.7-1.5,1.2l-0.2,0.1l-0.3,0.2
	c-0.2,0.1-0.4,0.2-0.5,0.3c-0.5,0.3-0.9,0.5-1.4,0.6c-1.2,0.5-2.3,0.6-3.4,0.3c-0.8-0.2-1.4-0.6-1.7-1.2c-0.3-0.6-0.3-1.1-0.1-1.7
	c-0.3,0.2-0.5,0.4-0.7,0.5c-0.1,0-0.1,0.1-0.3,0.1c-0.1,0-0.2-0.1-0.3-0.1c-0.1-0.1-0.1-0.2-0.1-0.3c0-0.1,0.1-0.2,0.1-0.3
	s0.2-0.2,0.3-0.3l0.1-0.1l0.1-0.1c0.1-0.1,0.2-0.2,0.3-0.3c0.1,0,0.2-0.2,0.5-0.4c0.1-0.1,0.2-0.2,0.4-0.3l0.5-0.3
	c0.8-0.6,1.3-1,1.4-1.1c0,0,0.1,0,0.1-0.1l0.1-0.1l0.1-0.1c0.2-0.2,0.4-0.3,0.5-0.4c0.4-0.3,0.7-0.5,0.8-0.4c1-0.7,1.8-0.7,2.4-0.1
	c0.3,0.3,0.3,0.6-0.1,0.9c-0.4,0.3-1,0.4-2,0.2c-0.1,0-0.2,0.1-0.4,0.2c-0.1,0.1-0.2,0.1-0.3,0.2c-0.1,0.1-0.3,0.1-0.4,0.2
	c-0.7,0.4-1.2,1-1.6,1.6c-0.4,0.7-0.6,1.3-0.5,1.8c0.1,0.4,0.5,0.7,1.1,0.9c1.3,0.3,2.8-0.1,4.6-1.2c0.5-0.3,1-0.7,1.7-1.2
	c0.1-0.1,0.2-0.1,0.4-0.1C143.4,50.2,143.5,50.2,143.6,50.3z M159.6,50.3c0.1,0.2,0.1,0.4-0.1,0.6l-1.1,0.9
	c-0.3,0.2-0.7,0.5-1.1,0.7c-0.5,0.3-1,0.6-1.5,0.8c-1.2,0.6-2.1,0.7-2.6,0.3c-0.3-0.2-0.3-0.6-0.1-1.2c0.1-0.2,0.2-0.5,0.4-0.9
	l0.3-0.5l0.3-0.5c0.3-0.6,0.6-1.1,0.7-1.5c0.1-0.1,0.1-0.3,0.1-0.4c0-0.1,0.1-0.1,0.1-0.2c-0.9-0.1-2.1,0.4-3.6,1.5
	c-0.6,0.4-1.1,0.9-1.7,1.5c-0.5,0.5-0.9,0.9-1.3,1.4c-0.2,0.2-0.4,0.3-0.6,0.1c-0.2-0.2-0.3-0.4-0.1-0.8l0.1-0.1l0.1-0.2
	c0.1-0.1,0.2-0.3,0.3-0.4c0.2-0.4,0.4-0.8,0.6-1.1c0.6-1.1,0.8-1.8,0.8-2.1c-0.3,0-0.8,0.1-1.4,0.5c-0.5,0.3-1,0.6-1.6,1.1
	c-0.4,0.4-0.9,0.8-1.4,1.4c-0.2,0.2-0.4,0.4-0.6,0.6c-0.2,0.2-0.3,0.3-0.5,0.5l-0.4,0.5c-0.1,0.1-0.3,0.1-0.4,0
	c-0.2-0.1-0.2-0.2-0.2-0.4c0-0.1,0.4-0.9,1.2-2.3l-0.1,0.1l-0.1,0.1c-0.1,0.1-0.2,0.2-0.2,0.2c-0.4,0.3-0.7,0.6-0.9,0.7
	c-0.2,0.1-0.4,0.1-0.5-0.1c-0.1-0.1-0.1-0.2-0.1-0.3c0-0.1,0.1-0.2,0.1-0.3c0.1-0.1,0.2-0.2,0.5-0.5c0.2-0.1,0.3-0.3,0.4-0.4
	c0.2-0.2,0.3-0.3,0.5-0.5c0.3-0.3,0.6-0.6,1-1l0.2-0.2l0.2-0.2c0.1-0.2,0.3-0.3,0.3-0.3c0.4-0.4,0.7-0.5,0.9-0.3
	c0.2,0.1,0.2,0.3,0.1,0.5c-0.1,0.2-0.4,0.8-1.1,2c1.6-1.4,2.8-2.2,3.9-2.3c1.1,0,1.4,0.7,0.8,2.2c1.2-1.1,2.4-1.8,3.6-2.1
	c0.9-0.2,1.6-0.2,2,0.1c0.5,0.4,0.5,1.1-0.1,2.2c-0.2,0.3-0.4,0.8-0.8,1.4l-0.2,0.3l-0.2,0.3c-0.1,0.2-0.2,0.4-0.3,0.5l-0.1,0.2
	c0,0.1-0.1,0.1-0.1,0.2c0,0.1,0.2,0.1,0.5,0c0.4-0.1,0.9-0.3,1.5-0.6c0.2-0.1,0.5-0.2,0.7-0.4c0.2-0.1,0.4-0.2,0.5-0.3
	c0.7-0.4,1.2-0.8,1.7-1.3c0.1-0.1,0.3-0.1,0.4-0.1C159.4,50.2,159.5,50.2,159.6,50.3z M169.9,50.3c0.1-0.1,0.2-0.1,0.4-0.1
	c0.1,0,0.2,0,0.3,0.1c0.1,0.2,0.1,0.4-0.1,0.6c-0.5,0.4-1,0.8-1.5,1.2c-0.8,0.6-1.6,0.9-2.2,1.1c-0.6,0.1-1.4,0.1-2.4,0
	c-0.5,0.4-1.1,0.6-1.6,0.7c-0.7,0.1-1.2,0.1-1.6-0.1c-0.4-0.1-0.6-0.4-0.7-0.7c-0.1-0.3,0-0.5,0.2-0.8c0.2-0.2,0.6-0.4,1.1-0.5
	c0.3-0.1,0.7,0,1.2,0l0.6,0.1l0.6,0.1c0.8-0.6,1.4-1.4,1.9-2.3c0.4-0.9,0.4-1.3,0-1.4h0c-0.6,0-1.3,0.2-2,0.6
	c-0.5,0.3-1.1,0.8-1.7,1.4c-0.4,0.4-0.8,0.8-1.3,1.3l-0.3,0.3l-0.2,0.3c-0.2,0.2-0.3,0.3-0.4,0.4c-0.5,0.5-0.9,0.5-1.2-0.1
	c-0.1-0.2,0.1-0.7,0.4-1.6c-0.1,0.1-0.2,0.2-0.3,0.3c-0.1,0-0.2,0.1-0.3,0.1c-0.1,0-0.2-0.1-0.3-0.1c-0.1-0.1-0.1-0.2-0.1-0.3
	c0-0.1,0.1-0.2,0.1-0.3c0.1-0.1,0.2-0.2,0.5-0.5c0.2-0.1,0.3-0.3,0.5-0.4c0.2-0.2,0.4-0.3,0.6-0.5c0.5-1.2,1.2-2.6,2-4.1
	c0.3-0.6,0.6-1.2,0.9-1.7c0.2-0.4,0.4-0.7,0.5-0.9c2.5-4.1,4.5-6.9,6.1-8.3c0.8-0.7,1.3-1,1.6-0.9c1,0,1.3,0.7,1,1.9
	c-0.3,1.1-1.1,2.6-2.3,4.4c-2.6,3.7-5.5,7.1-8.8,10.1l-0.2,0.5c0.8-0.9,1.6-1.6,2.4-2c1-0.6,2-0.9,2.9-0.9c1.1,0.1,1.5,0.8,1.2,1.9
	c-0.3,1.1-0.9,2.1-2,3.1c0.7,0,1.4-0.1,2.1-0.5c0.3-0.1,0.5-0.2,0.7-0.4c0.1,0,0.2-0.1,0.3-0.2l0.1-0.1l0.1-0.1
	C168.9,51,169.4,50.7,169.9,50.3z M171,34.3c-0.8,0-2.2,1.5-4.2,4.6c-1.8,2.7-3.4,5.7-5,8.9c2.8-2.8,5.2-5.6,7.2-8.5
	C171,36.4,171.6,34.8,171,34.3C171.1,34.3,171.1,34.3,171,34.3z M162,53.1c0.3,0,0.6-0.1,0.9-0.2c-0.7-0.2-1.2-0.2-1.6,0l-0.1,0.1
	l0.1,0.1c0,0,0.1,0,0.1,0.1C161.6,53.1,161.8,53.1,162,53.1z M180,50.3c0.1,0.2,0.1,0.4-0.1,0.6l-0.2,0.2l-0.2,0.2
	c-0.2,0.2-0.4,0.3-0.5,0.4c-1.4,1-2.8,1.3-4.3,0.9c-1.2,0.9-2.2,1.1-3.1,0.7c-0.9-0.4-1.1-1.3-0.7-2.7l-0.3,0.3l-0.7,0.5
	c-0.1,0-0.2,0.1-0.3,0.1c-0.1,0-0.2-0.1-0.3-0.1c-0.1-0.1-0.1-0.2-0.1-0.3c0-0.1,0.1-0.2,0.1-0.3c0.1,0,0.1-0.1,0.2-0.2l0.2-0.1
	l0.2-0.1c0.3-0.3,0.7-0.6,1-0.9l1-1c0.2-0.2,0.4-0.2,0.6,0c0.6-1.1,1.5-1.8,2.6-2c1.2-0.3,1.9,0.2,2.1,1.4c0.2,0.9-0.2,2-1,3.2
	c-0.3,0.4-0.6,0.8-0.8,1c0.4,0.1,0.8,0.1,1.2,0c0.6-0.1,1.1-0.4,1.7-0.8c0.4-0.3,0.7-0.5,1-0.8c0.1-0.1,0.3-0.1,0.4-0.1
	C179.9,50.2,180,50.2,180,50.3z M174.3,51.6c0.7-0.7,1.3-1.5,1.7-2.4c0.4-0.9,0.4-1.5,0-1.8l-0.1,0l-0.1-0.1c-0.1,0-0.2,0-0.3-0.1
	c-0.7,0-1.4,0.3-1.9,1c-0.5,0.7-0.7,1.5-0.3,2.3C173.4,51.1,173.8,51.4,174.3,51.6z M172.3,52.6c0.4,0,0.8-0.2,1.2-0.4
	c-0.3-0.2-0.6-0.5-0.8-0.8c-0.4-0.6-0.6-1.2-0.5-1.9c-0.6,0.9-0.8,1.7-0.7,2.4C171.6,52.4,171.9,52.7,172.3,52.6z M201.5,53.1
	C201.5,53.1,201.5,53.1,201.5,53.1C201.5,53.1,201.5,53.1,201.5,53.1z M202.3,47.3c0.5-0.1,0.8-0.1,1,0.2c0.2,0.2,0.1,0.5-0.1,0.9
	c-0.2,0.2-0.3,0.4-0.5,0.5c-0.2,0.1-0.4,0.1-0.5,0c-0.1-0.1-0.1-0.2,0-0.4c-0.9,0.4-2.1,1.1-3.4,2.3c0.4,0.6,1,1.2,1.7,1.8
	c0.2,0.2,0.5,0.3,0.7,0.5c0.1,0.1,0.1,0.1,0.2,0.1l0.1,0.1l0.1,0c0.2,0.2,0.2,0.3,0.1,0.6c-0.2,0.2-0.3,0.3-0.6,0.1
	c-1.2-0.7-2.1-1.5-2.9-2.6c-0.2,0.2-0.5,0.4-0.9,0.8l-0.5,0.4l-0.5,0.5c-0.9,0.8-1.8,1.5-2.6,2.2c-0.1,0.1-0.2,0.1-0.2,0.2l-0.3,0.2
	c-0.2,0.2-0.4,0.3-0.5,0.5c-0.1,0.1-0.2,0.2-0.4,0.1c-0.1,0-0.2-0.1-0.3-0.2c-0.1-0.1-0.1-0.2-0.1-0.3c0-0.1,0.1-0.2,0.2-0.3
	c0.7-0.4,1.6-1.1,2.7-2.1c0.3-0.3,0.8-0.8,1.4-1.4l1.4-1.4c-0.4-0.7-0.7-1.2-0.8-1.7c-0.1,0.1-0.4,0.4-1,0.9c-0.6,0.5-0.9,0.8-1,0.9
	c-0.4,0.4-0.8,0.7-1.1,0.9c-0.1,0-0.1,0.1-0.3,0.1c-0.1,0-0.2-0.1-0.3-0.1c-0.1-0.1-0.1-0.2-0.1-0.3c0-0.1,0.1-0.2,0.1-0.3
	c0.1-0.1,0.2-0.2,0.5-0.5c0.2-0.1,0.3-0.3,0.5-0.4c0.2-0.2,0.4-0.3,0.6-0.5c0.4-0.4,1.1-1.2,2.1-2.3c0.2-0.2,0.4-0.2,0.7,0
	c0.2,0.2,0.2,0.4,0.1,0.7c0.1,0.7,0.3,1.5,0.7,2.2C199.8,48.5,201.2,47.6,202.3,47.3z M212.3,50.3c0.1,0.2,0.1,0.4-0.1,0.6l-0.2,0.2
	l-0.2,0.2c-0.2,0.2-0.4,0.3-0.5,0.4c-1.4,1-2.8,1.3-4.3,0.9c-1.2,0.9-2.2,1.1-3.1,0.7c-0.9-0.4-1.1-1.3-0.7-2.7l-0.3,0.3l-0.7,0.5
	c-0.1,0-0.2,0.1-0.3,0.1c-0.1,0-0.2-0.1-0.3-0.1c-0.1-0.1-0.1-0.2-0.1-0.3c0-0.1,0.1-0.2,0.1-0.3c0.1,0,0.1-0.1,0.2-0.2l0.2-0.1
	l0.2-0.1c0.3-0.3,0.7-0.6,1-0.9l1-1c0.2-0.2,0.4-0.2,0.6,0c0.6-1.1,1.5-1.8,2.6-2c1.2-0.3,1.9,0.2,2.1,1.4c0.2,0.9-0.2,2-1,3.2
	c-0.3,0.4-0.6,0.8-0.8,1c0.4,0.1,0.8,0.1,1.2,0c0.6-0.1,1.1-0.4,1.7-0.8c0.4-0.3,0.7-0.5,1-0.8c0.1-0.1,0.3-0.1,0.4-0.1
	C212.1,50.2,212.2,50.2,212.3,50.3z M206.5,51.6c0.7-0.7,1.3-1.5,1.7-2.4c0.4-0.9,0.4-1.5,0-1.8l-0.1,0l-0.1-0.1
	c-0.1,0-0.2,0-0.3-0.1c-0.7,0-1.4,0.3-1.9,1c-0.5,0.7-0.7,1.5-0.3,2.3C205.7,51.1,206,51.4,206.5,51.6z M204.6,52.6
	c0.4,0,0.8-0.2,1.2-0.4c-0.3-0.2-0.6-0.5-0.8-0.8c-0.4-0.6-0.6-1.2-0.5-1.9c-0.6,0.9-0.8,1.7-0.7,2.4
	C203.9,52.4,204.1,52.7,204.6,52.6z M223,50.3c0.1,0.2,0.1,0.4-0.1,0.6l-0.2,0.2l-0.3,0.2c-0.2,0.2-0.4,0.3-0.6,0.5l-0.2,0.1
	l-0.2,0.2l-0.5,0.3c-0.4,0.2-0.8,0.5-1.2,0.6c-1,0.4-2,0.5-3,0.2c-1,0.6-1.7,0.9-2.4,0.7c-0.3-0.1-0.6-0.3-0.7-0.5
	c-0.1-0.2-0.1-0.5,0-0.8c0.3-0.7,1.1-0.8,2.4-0.5c0.2,0,0.3,0.1,0.5,0.1c0.8-0.7,1.4-1.4,1.9-2.3c0.4-0.9,0.4-1.3-0.1-1.4
	c-1.5,0-3.3,1.3-5.4,3.9c-1.3,3.2-2.5,5.9-3.5,7.9c-1.4,2.8-2.3,4.2-2.8,4.3h-0.2c-0.4-0.1-0.2-1,0.3-2.9c1.5-4.4,3.4-7.9,5.7-10.6
	l0.2-0.5l0.2-0.5l0-0.1V50c-0.4,0.4-0.7,0.7-1,0.9c-0.2,0.2-0.4,0.3-0.6,0.5c-0.1,0-0.2,0.1-0.3,0.1c-0.1,0-0.2-0.1-0.3-0.1
	c-0.1-0.1-0.1-0.2-0.1-0.3c0-0.1,0.1-0.2,0.1-0.3c0.1-0.1,0.2-0.2,0.6-0.5c0.2-0.1,0.3-0.3,0.5-0.4c0.2-0.2,0.4-0.3,0.6-0.5
	c0.4-0.4,1-1,1.6-1.8c0.2-0.2,0.3-0.2,0.5-0.1c0.2,0.1,0.3,0.3,0.2,0.5l0,0.1l-0.1,0.1c0,0.1-0.1,0.2-0.1,0.3
	c-0.1,0.3-0.3,0.7-0.4,1c1-0.9,2-1.5,3-1.8c0.9-0.3,1.5-0.3,2-0.1c0.5,0.3,0.7,0.8,0.6,1.5c-0.1,0.8-0.6,1.7-1.4,2.7
	c-0.2,0.3-0.4,0.5-0.7,0.7c1.2,0,2.4-0.5,3.6-1.3c0.3-0.2,0.7-0.5,1.1-0.8c0.1-0.1,0.2-0.1,0.4-0.1C222.9,50.2,223,50.2,223,50.3z
	 M207.4,62.7c0.7-1.2,1.8-3.5,3.3-6.9C209.2,58.3,208.1,60.6,207.4,62.7z M214.8,53.1c0.2,0,0.5-0.1,0.7-0.2c-0.2,0-0.3-0.1-0.5-0.1
	h-0.2l-0.2,0c-0.2,0-0.3,0.1-0.3,0.1c0,0,0.1,0,0.2,0.1C214.7,53.1,214.8,53.1,214.8,53.1z M232.6,50.3c0.1,0.2,0.1,0.4-0.1,0.6
	l-0.2,0.2l-0.2,0.2c-0.2,0.2-0.4,0.3-0.5,0.4c-1.4,1-2.8,1.3-4.3,0.9c-1.2,0.9-2.2,1.1-3.1,0.7c-0.9-0.4-1.1-1.3-0.7-2.7l-0.3,0.3
	l-0.7,0.5c-0.1,0-0.2,0.1-0.3,0.1c-0.1,0-0.2-0.1-0.3-0.1c-0.1-0.1-0.1-0.2-0.1-0.3c0-0.1,0.1-0.2,0.1-0.3c0.1,0,0.1-0.1,0.2-0.2
	l0.2-0.1l0.2-0.1c0.3-0.3,0.7-0.6,1-0.9l1-1c0.2-0.2,0.4-0.2,0.6,0c0.6-1.1,1.5-1.8,2.6-2c1.2-0.3,1.9,0.2,2.1,1.4
	c0.2,0.9-0.2,2-1,3.2c-0.3,0.4-0.6,0.8-0.8,1c0.4,0.1,0.8,0.1,1.2,0c0.6-0.1,1.1-0.4,1.7-0.8c0.4-0.3,0.7-0.5,1-0.8
	c0.1-0.1,0.2-0.1,0.4-0.1C232.4,50.2,232.5,50.2,232.6,50.3z M226.8,51.6c0.7-0.7,1.3-1.5,1.7-2.4c0.4-0.9,0.4-1.5,0-1.8l-0.1,0
	l-0.1-0.1c-0.1,0-0.2,0-0.3-0.1c-0.7,0-1.4,0.3-1.9,1c-0.5,0.7-0.7,1.5-0.3,2.3C226,51.1,226.3,51.4,226.8,51.6z M224.9,52.6
	c0.4,0,0.8-0.2,1.2-0.4c-0.3-0.2-0.6-0.5-0.8-0.8c-0.4-0.6-0.6-1.2-0.5-1.9c-0.6,0.9-0.8,1.7-0.7,2.4
	C224.2,52.4,224.4,52.7,224.9,52.6z M248.2,50.3c0.1,0.2,0.1,0.4-0.1,0.6c-0.1,0.1-0.2,0.2-0.4,0.3l-0.2,0.2l-0.3,0.2
	c-1.7,1.3-3,1.9-4.1,1.9c-1.1,0-1.3-0.7-0.7-2.2c-1.9,1.6-3.4,2.4-4.4,2.3c-1-0.1-1.3-0.9-1-2.4c-2.1,1.8-3.5,2.3-4,1.6
	c-0.3-0.5-0.4-1.2-0.1-2v0c-0.4,0.3-0.7,0.5-0.9,0.6c-0.1,0-0.1,0.1-0.3,0.1c-0.1,0-0.2-0.1-0.3-0.1c-0.1-0.1-0.1-0.2-0.1-0.3
	c0-0.1,0.1-0.2,0.1-0.3c0.1-0.1,0.2-0.2,0.5-0.4l0.2-0.1l0.2-0.2c0.2-0.2,0.3-0.3,0.5-0.4c0.3-0.3,0.7-0.7,1.2-1.1l0.5-0.5l0.3-0.3
	l0.2-0.3c0.2-0.2,0.4-0.2,0.6,0c0.2,0.2,0.2,0.4,0,0.6c-0.6,0.6-1.1,1.2-1.5,2c-0.5,0.8-0.7,1.5-0.7,1.9l0,0.1c0,0,0,0.1,0.1,0.1
	c0.1,0,0.2,0,0.5-0.1c1.2-0.7,2.5-1.7,3.9-3.1c0.6-1.2,1.2-1.7,1.6-1.7c0.1,0,0.2,0,0.3,0.1c0.1,0.1,0.1,0.2,0.1,0.4
	c0,0.3-0.5,1.1-1.6,2.2c-0.7,1.4-1,2.3-0.7,2.7c0,0,0,0,0,0c0.4,0.4,1.5-0.1,3.4-1.7c0.7-0.6,1.4-1.2,2.1-2c0.6-0.6,1.1-1.1,1.5-1.6
	c0.2-0.3,0.5-0.3,0.7-0.1c0.3,0.2,0.3,0.5,0.1,0.7c-0.2,0.2-0.5,0.6-0.8,1c-0.4,0.5-0.7,1-1,1.5c-0.8,1.3-1.1,2-0.7,2.1
	c0.3,0.1,0.9-0.1,1.7-0.5c0.3-0.1,0.6-0.3,0.9-0.5c0.1-0.1,0.2-0.2,0.4-0.2c0.1-0.1,0.2-0.1,0.3-0.2c0.4-0.3,0.8-0.6,1.2-0.9
	c0.1-0.1,0.2-0.1,0.4-0.1C248,50.2,248.1,50.2,248.2,50.3z M257.5,50.3c0.1,0.2,0.1,0.4-0.1,0.6l-0.2,0.2l-0.2,0.2
	c-0.2,0.2-0.4,0.3-0.5,0.4c-1.4,1-2.8,1.3-4.3,0.9c-1.2,0.9-2.2,1.1-3.1,0.7c-0.9-0.4-1.1-1.3-0.7-2.7l-0.3,0.3l-0.7,0.5
	c-0.1,0-0.2,0.1-0.3,0.1c-0.1,0-0.2-0.1-0.3-0.1c-0.1-0.1-0.1-0.2-0.1-0.3c0-0.1,0.1-0.2,0.1-0.3c0.1,0,0.1-0.1,0.2-0.2l0.2-0.1
	l0.2-0.1c0.3-0.3,0.7-0.6,1-0.9l1-1c0.2-0.2,0.4-0.2,0.6,0c0.6-1.1,1.5-1.8,2.6-2c1.2-0.3,1.9,0.2,2.1,1.4c0.2,0.9-0.2,2-1,3.2
	c-0.3,0.4-0.6,0.8-0.8,1c0.4,0.1,0.8,0.1,1.2,0c0.6-0.1,1.1-0.4,1.7-0.8c0.4-0.3,0.7-0.5,1-0.8c0.1-0.1,0.3-0.1,0.4-0.1
	C257.4,50.2,257.5,50.2,257.5,50.3z M251.8,51.6c0.7-0.7,1.3-1.5,1.7-2.4c0.4-0.9,0.4-1.5,0-1.8l-0.1,0l-0.1-0.1
	c-0.1,0-0.2,0-0.3-0.1c-0.7,0-1.4,0.3-1.9,1c-0.5,0.7-0.7,1.5-0.3,2.3C251,51.1,251.3,51.4,251.8,51.6z M249.8,52.6
	c0.4,0,0.8-0.2,1.2-0.4c-0.3-0.2-0.6-0.5-0.8-0.8c-0.4-0.6-0.6-1.2-0.5-1.9c-0.6,0.9-0.8,1.7-0.7,2.4
	C249.2,52.4,249.4,52.7,249.8,52.6z M111.4,79.6c0.1,0.2,0.1,0.4-0.2,0.6c-0.4,0.3-0.8,0.7-1.4,1.1c-0.7,0.5-1.3,0.9-1.9,1.2
	c-1.7,0.8-2.7,1-3.1,0.3c-0.2-0.4,0-1.1,0.6-2.3l0.4-0.7l0.4-0.7c0.3-0.5,0.5-1,0.5-1.3v-0.1c-0.6-0.1-1.8,0.6-3.7,2.1
	c-0.3,0.2-0.6,0.5-1,0.8l-0.5,0.4l-0.2,0.2l-0.2,0.2c-0.6,0.5-1,0.8-1.1,0.8c-0.2,0.1-0.4,0-0.5-0.1c-0.1-0.2-0.2-0.4-0.1-0.6
	c0.1-0.2,0.4-0.8,0.9-1.8c-0.3,0.2-0.5,0.4-0.7,0.6c-0.1,0.1-0.2,0.1-0.3,0.2l-0.2,0.1c-0.1,0-0.1,0.1-0.3,0.1
	c-0.1,0-0.2-0.1-0.3-0.1c-0.1-0.1-0.1-0.2-0.1-0.3c0-0.1,0.1-0.2,0.1-0.3c0.1-0.1,0.2-0.2,0.4-0.3c0.1-0.1,0.2-0.2,0.3-0.2
	c0.1-0.1,0.2-0.2,0.3-0.3c0,0,0.1-0.1,0.1-0.1c0.1,0,0.1-0.1,0.2-0.2c0.2-0.2,0.4-0.3,0.6-0.5c0.6-0.6,1.1-1.1,1.7-1.7
	c0.2-0.2,0.4-0.2,0.6,0c0.2,0.2,0.2,0.4,0.1,0.5c-0.4,0.7-0.8,1.4-1.2,2c-0.3,0.5-0.6,0.9-0.8,1.3c0.2-0.2,0.4-0.4,0.8-0.6l0.8-0.7
	c0.7-0.5,1.2-1,1.7-1.3c1.3-0.9,2.3-1.3,2.9-1.2c0.9,0.2,1,1.1,0.3,2.5c-0.1,0.2-0.3,0.5-0.5,0.9l-0.3,0.4l-0.3,0.4
	c-0.4,0.7-0.6,1.1-0.7,1.3c0.5,0,1.4-0.3,2.6-1c0.5-0.3,0.9-0.6,1.4-0.9c0.4-0.3,0.7-0.5,1-0.8c0.1-0.1,0.2-0.1,0.4-0.1
	C111.2,79.5,111.3,79.5,111.4,79.6z M122.1,79.6c0.1,0.2,0.1,0.4-0.1,0.6l-0.2,0.2l-0.3,0.2c-0.2,0.2-0.4,0.3-0.6,0.5l-0.2,0.1
	l-0.2,0.2l-0.5,0.3c-0.4,0.2-0.8,0.5-1.2,0.6c-1,0.4-2,0.5-3,0.2c-1,0.6-1.7,0.9-2.4,0.7c-0.3-0.1-0.6-0.3-0.7-0.5
	c-0.1-0.2-0.1-0.5,0-0.8c0.3-0.7,1.1-0.8,2.4-0.5c0.2,0,0.3,0.1,0.5,0.1c0.8-0.7,1.4-1.4,1.9-2.3c0.4-0.9,0.4-1.3-0.1-1.4
	c-1.5,0-3.3,1.3-5.4,3.9c-1.3,3.2-2.5,5.9-3.5,7.9c-1.4,2.8-2.3,4.2-2.8,4.3h-0.2c-0.4-0.1-0.3-1,0.3-2.9c1.5-4.4,3.4-7.9,5.7-10.6
	l0.2-0.5l0.2-0.5l0-0.1v-0.1c-0.4,0.4-0.7,0.7-1,0.9c-0.2,0.2-0.4,0.3-0.6,0.5c-0.1,0-0.2,0.1-0.3,0.1c-0.1,0-0.2-0.1-0.3-0.1
	c-0.1-0.1-0.1-0.2-0.1-0.3c0-0.1,0.1-0.2,0.1-0.3c0.1-0.1,0.2-0.2,0.6-0.5c0.2-0.1,0.3-0.3,0.5-0.4c0.2-0.2,0.4-0.3,0.6-0.5
	c0.4-0.4,1-1,1.6-1.8c0.2-0.2,0.3-0.2,0.5-0.1c0.2,0.1,0.3,0.3,0.2,0.5l0,0.1l-0.1,0.1c0,0.1-0.1,0.2-0.1,0.3
	c-0.1,0.3-0.3,0.7-0.4,1c1-0.9,2-1.5,3-1.8c0.9-0.3,1.5-0.3,2-0.1c0.5,0.3,0.7,0.8,0.6,1.5c-0.1,0.8-0.6,1.7-1.4,2.7
	c-0.2,0.3-0.4,0.5-0.7,0.7c1.2,0,2.4-0.5,3.6-1.3c0.3-0.2,0.7-0.5,1.1-0.8c0.1-0.1,0.2-0.1,0.4-0.1C122,79.5,122.1,79.5,122.1,79.6z
	 M106.5,91.9c0.7-1.2,1.8-3.5,3.3-6.9C108.3,87.5,107.2,89.8,106.5,91.9z M113.9,82.4c0.2,0,0.5-0.1,0.7-0.2c-0.2,0-0.3-0.1-0.5-0.1
	H114l-0.2,0c-0.2,0-0.3,0.1-0.3,0.1c0,0,0.1,0,0.2,0.1C113.8,82.4,113.9,82.4,113.9,82.4z M131.7,79.6c0.1,0.2,0.1,0.4-0.1,0.6
	l-0.2,0.2l-0.2,0.2c-0.2,0.2-0.4,0.3-0.5,0.4c-1.4,1-2.8,1.3-4.3,0.9c-1.2,0.9-2.2,1.1-3.1,0.7c-0.9-0.4-1.1-1.3-0.7-2.7l-0.3,0.3
	l-0.7,0.5c-0.1,0-0.2,0.1-0.3,0.1c-0.1,0-0.2-0.1-0.3-0.1c-0.1-0.1-0.1-0.2-0.1-0.3c0-0.1,0.1-0.2,0.1-0.3c0.1,0,0.1-0.1,0.2-0.2
	l0.2-0.1l0.2-0.1c0.3-0.3,0.7-0.6,1-0.9l1-1c0.2-0.2,0.4-0.2,0.6,0c0.6-1.1,1.5-1.8,2.6-2c1.2-0.3,1.9,0.2,2.1,1.4
	c0.2,0.9-0.2,2-1,3.2c-0.3,0.4-0.6,0.8-0.8,1c0.4,0.1,0.8,0.1,1.2,0c0.6-0.1,1.1-0.4,1.7-0.8c0.4-0.3,0.7-0.5,1-0.8
	c0.1-0.1,0.3-0.1,0.4-0.1C131.5,79.5,131.6,79.5,131.7,79.6z M125.9,80.9c0.7-0.7,1.3-1.5,1.7-2.4c0.4-0.9,0.4-1.5,0-1.8l-0.1,0
	l-0.1-0.1c-0.1,0-0.2,0-0.3-0.1c-0.7,0-1.4,0.3-1.9,1c-0.5,0.7-0.7,1.5-0.3,2.3C125.1,80.3,125.4,80.7,125.9,80.9z M124,81.9
	c0.4,0,0.8-0.2,1.2-0.4c-0.3-0.2-0.6-0.5-0.8-0.8c-0.4-0.6-0.6-1.2-0.5-1.9c-0.6,0.9-0.8,1.7-0.7,2.4
	C123.3,81.7,123.6,81.9,124,81.9z M142.2,78.1c0.7-0.5,1.1-0.9,1.2-1c0,0,0.1,0,0.1-0.1l0.1-0.1l0.1-0.1c0.2-0.2,0.4-0.3,0.5-0.4
	c0.4-0.3,0.7-0.5,0.8-0.4c1-0.7,1.8-0.7,2.4-0.1c0.3,0.3,0.3,0.6-0.1,0.9c-0.4,0.3-1,0.4-2,0.2c-0.1,0-0.2,0.1-0.4,0.2
	c-0.1,0.1-0.2,0.1-0.3,0.2c-0.1,0.1-0.3,0.1-0.4,0.2c-0.7,0.4-1.2,1-1.6,1.6c-0.4,0.7-0.6,1.3-0.5,1.8c0.1,0.4,0.5,0.7,1.1,0.9
	c1.3,0.3,2.8-0.1,4.6-1.2c0.5-0.3,1-0.7,1.7-1.2c0.1-0.1,0.2-0.1,0.4-0.1c0.1,0,0.2,0,0.3,0.1c0.1,0.2,0.1,0.4-0.2,0.6
	c-0.3,0.3-0.8,0.7-1.5,1.2l-0.2,0.1l-0.3,0.2c-0.2,0.1-0.4,0.2-0.5,0.3c-0.5,0.3-0.9,0.5-1.4,0.6c-1.2,0.5-2.3,0.6-3.4,0.3
	c-0.8-0.2-1.4-0.6-1.7-1.2c-0.3-0.6-0.3-1.1-0.1-1.7c-0.1,0.1-0.3,0.2-0.4,0.3c-0.2,0.2-0.5,0.5-0.7,0.7c-0.1,0.1-0.3,0.3-0.4,0.5
	l-0.2,0.2l-0.1,0.2c-0.4,0.4-0.7,0.5-1,0.3c-0.1-0.1-0.1-0.1-0.1-0.2l0,0c-0.1-0.6,0.1-1.6,0.6-2.9v0c-0.5,0.5-1,0.9-1.4,1.2
	c-0.3,0.4-0.7,0.8-1.2,1.1c-0.8,0.6-1.8,1-3,1.3c-1.2,0.3-2,0.2-2.4-0.1c-0.3-0.2-0.4-0.6-0.2-1.1c0.2-0.4,0.5-0.8,1-1.3
	c0.2-0.2,0.4-0.3,0.6-0.4c0.2-0.1,0.4-0.2,0.6-0.2c0.1,0,0.2,0,0.3,0.1c0.1,0.1,0.1,0.1,0.1,0.3c0,0.1,0,0.2-0.1,0.3
	c-0.1,0.1-0.1,0.2-0.3,0.2c-0.1,0-0.3,0.1-0.4,0.2c-0.2,0.1-0.3,0.2-0.4,0.3c0,0,0,0-0.1,0.1l-0.1,0.1c-0.1,0.1-0.2,0.2-0.3,0.3
	c-0.2,0.3-0.3,0.5-0.2,0.6c0.1,0,0.3,0,0.5,0c0.3,0,0.6-0.1,1-0.2c1-0.2,1.9-0.6,2.7-1.2c1.1-0.8,1.7-1.7,1.8-2.5
	c0.1-0.9-0.4-1.2-1.6-1l-0.1,0.1l-0.1,0.1l-0.4,0.2c-0.3,0.1-0.5,0.2-0.7,0.1c-0.2-0.1-0.3-0.2-0.3-0.3c0-0.1,0-0.2,0-0.3l0.1-0.1
	l0.1-0.1c0.2-0.1,0.4-0.2,0.7-0.3c0.8-0.4,1.6-0.5,2.3-0.3c0.8,0.3,1.1,1,1,2.1c0,0.1,0,0.1,0,0.2c0.3-0.3,0.6-0.6,0.8-0.9
	c0.1-0.1,0.3-0.3,0.4-0.5l0.2-0.2l0.1-0.2c0.4-0.4,0.7-0.5,1-0.3c0.2,0.2,0.2,0.4,0.1,0.7c-0.7,1.5-1.2,2.6-1.5,3.3l0.9-0.8
	c0.7-0.7,1.3-1.1,1.7-1.4C142,78.2,142.1,78.1,142.2,78.1z M161.7,79.6c0.1,0.2,0.1,0.4-0.1,0.6c-0.3,0.3-0.6,0.5-0.9,0.7
	c-2,1.5-3.5,2.2-4.6,2.2c-1.1,0-1.3-0.9-0.5-2.6l-0.3,0.3c-2.2,1.7-3.8,2.4-4.7,2c-0.8-0.3-0.9-1.2-0.3-2.7
	c-0.2,0.1-0.3,0.3-0.5,0.4l-0.2,0.1l-0.2,0.1c-0.1,0-0.2,0.1-0.3,0.1c-0.1,0-0.2-0.1-0.3-0.1c-0.1-0.1-0.1-0.2-0.1-0.3
	c0-0.1,0.1-0.2,0.1-0.3c0.1-0.1,0.2-0.2,0.5-0.5c0.1-0.1,0.3-0.2,0.4-0.3c0.2-0.2,0.3-0.3,0.5-0.5c0.3-0.3,0.7-0.7,1.2-1.1
	c0.1-0.2,0.3-0.3,0.5-0.5l0.3-0.2l0.2-0.2c0.2-0.2,0.4-0.2,0.6,0c0.2,0.2,0.2,0.4,0,0.6l-0.1,0.1l-0.1,0.1c-0.2,0.3-0.5,0.6-0.7,0.9
	c-0.3,0.4-0.5,0.8-0.7,1.2c-0.6,1-0.8,1.8-0.7,2.4c0.1,0.1,0.3,0.2,0.7,0.1c0.4-0.1,0.9-0.3,1.5-0.7c1.6-1,3.3-2.5,5.1-4.7
	c0.2-0.3,0.5-0.3,0.7-0.1c0.3,0.2,0.3,0.5,0.1,0.8c-2.1,2.9-3,4.5-2.7,4.9c0.1,0.1,0.5,0,1.4-0.4c0.3-0.2,0.6-0.3,1-0.5
	c0.3-0.2,0.5-0.3,0.7-0.4c0.4-0.2,1-0.7,1.8-1.3c0.1-0.1,0.2-0.1,0.4-0.1C161.5,79.5,161.6,79.5,161.7,79.6z M177.8,79.6
	c0.1,0.2,0.1,0.4-0.1,0.6l-1.1,0.9c-0.3,0.2-0.7,0.5-1.1,0.7c-0.5,0.3-1,0.6-1.5,0.8c-1.2,0.6-2.1,0.7-2.6,0.3
	c-0.3-0.2-0.3-0.6-0.1-1.2c0.1-0.2,0.2-0.5,0.4-0.9l0.3-0.5l0.3-0.5c0.3-0.6,0.6-1.1,0.7-1.5c0.1-0.1,0.1-0.3,0.1-0.4
	c0-0.1,0.1-0.1,0.1-0.2c-0.9-0.1-2.1,0.4-3.6,1.5c-0.6,0.4-1.1,0.9-1.7,1.5c-0.5,0.5-0.9,0.9-1.3,1.4c-0.2,0.2-0.4,0.3-0.6,0.1
	c-0.3-0.2-0.3-0.4-0.1-0.8l0.1-0.1l0.1-0.2c0.1-0.1,0.2-0.3,0.3-0.4c0.2-0.4,0.4-0.8,0.6-1.1c0.6-1.1,0.8-1.8,0.8-2.1
	c-0.3,0-0.8,0.1-1.4,0.5c-0.5,0.3-1,0.6-1.6,1.1c-0.4,0.4-0.9,0.8-1.4,1.4c-0.2,0.2-0.4,0.4-0.6,0.6c-0.2,0.2-0.3,0.3-0.5,0.5
	l-0.4,0.5c-0.1,0.1-0.3,0.1-0.4,0c-0.2-0.1-0.3-0.2-0.2-0.4c0-0.1,0.4-0.9,1.2-2.3l-0.1,0.1l-0.1,0.1c-0.1,0.1-0.2,0.2-0.2,0.2
	c-0.4,0.3-0.7,0.6-0.9,0.7c-0.2,0.1-0.4,0.1-0.5-0.1c-0.1-0.1-0.1-0.2-0.1-0.3c0-0.1,0.1-0.2,0.1-0.3c0.1-0.1,0.2-0.2,0.5-0.5
	c0.2-0.1,0.3-0.3,0.4-0.4c0.2-0.2,0.3-0.3,0.5-0.5c0.3-0.3,0.6-0.6,1-1l0.2-0.2l0.2-0.2c0.1-0.2,0.3-0.3,0.3-0.3
	c0.4-0.4,0.7-0.5,0.9-0.3c0.2,0.1,0.2,0.3,0.1,0.5c-0.1,0.2-0.4,0.8-1.1,2c1.6-1.4,2.8-2.2,3.9-2.3c1.1,0,1.4,0.7,0.8,2.2
	c1.2-1.1,2.4-1.8,3.6-2.1c0.9-0.2,1.6-0.2,2,0.1c0.5,0.4,0.5,1.1-0.1,2.2c-0.2,0.3-0.4,0.8-0.8,1.4l-0.2,0.3l-0.2,0.3
	c-0.1,0.2-0.2,0.4-0.3,0.5l-0.1,0.2c0,0.1-0.1,0.1-0.1,0.2c0,0.1,0.2,0.1,0.5,0c0.4-0.1,0.9-0.3,1.5-0.6c0.2-0.1,0.5-0.2,0.7-0.4
	c0.2-0.1,0.4-0.2,0.5-0.3c0.7-0.4,1.2-0.8,1.7-1.3c0.1-0.1,0.3-0.1,0.4-0.1C177.6,79.5,177.7,79.5,177.8,79.6z M187.2,79.6
	c0.1,0.2,0.1,0.4-0.1,0.6l-0.2,0.2l-0.2,0.2c-0.2,0.2-0.4,0.3-0.5,0.4c-1.4,1-2.8,1.3-4.3,0.9c-1.2,0.9-2.2,1.1-3.1,0.7
	c-0.9-0.4-1.1-1.3-0.7-2.7l-0.3,0.3l-0.7,0.5c-0.1,0-0.2,0.1-0.3,0.1c-0.1,0-0.2-0.1-0.3-0.1c-0.1-0.1-0.1-0.2-0.1-0.3
	c0-0.1,0.1-0.2,0.1-0.3c0.1,0,0.1-0.1,0.2-0.2l0.2-0.1l0.2-0.1c0.3-0.3,0.7-0.6,1-0.9l1-1c0.2-0.2,0.4-0.2,0.6,0
	c0.6-1.1,1.5-1.8,2.6-2c1.2-0.3,1.9,0.2,2.1,1.4c0.2,0.9-0.2,2-1,3.2c-0.3,0.4-0.6,0.8-0.8,1c0.4,0.1,0.8,0.1,1.2,0
	c0.6-0.1,1.1-0.4,1.7-0.8c0.4-0.3,0.7-0.5,1-0.8c0.1-0.1,0.3-0.1,0.4-0.1C187,79.5,187.1,79.5,187.2,79.6z M181.4,80.9
	c0.7-0.7,1.3-1.5,1.7-2.4c0.4-0.9,0.4-1.5,0-1.8l-0.1,0l-0.1-0.1c-0.1,0-0.2,0-0.3-0.1c-0.7,0-1.4,0.3-1.9,1
	c-0.5,0.7-0.7,1.5-0.3,2.3C180.6,80.3,180.9,80.7,181.4,80.9z M179.5,81.9c0.4,0,0.8-0.2,1.2-0.4c-0.3-0.2-0.6-0.5-0.8-0.8
	c-0.4-0.6-0.6-1.2-0.5-1.9c-0.6,0.9-0.8,1.7-0.7,2.4C178.8,81.7,179,81.9,179.5,81.9z M198.7,79.6c0.1,0.2,0.1,0.4-0.1,0.6
	c-0.3,0.3-0.6,0.5-0.9,0.7c-2,1.5-3.5,2.2-4.6,2.2c-1.1,0-1.3-0.9-0.5-2.6l-0.3,0.3c-2.2,1.7-3.8,2.4-4.7,2
	c-0.8-0.3-0.9-1.2-0.3-2.7c-0.2,0.1-0.3,0.3-0.5,0.4l-0.2,0.1l-0.2,0.1c-0.1,0-0.2,0.1-0.3,0.1c-0.1,0-0.2-0.1-0.3-0.1
	c-0.1-0.1-0.1-0.2-0.1-0.3c0-0.1,0.1-0.2,0.1-0.3c0.1-0.1,0.2-0.2,0.5-0.5c0.1-0.1,0.3-0.2,0.4-0.3c0.2-0.2,0.3-0.3,0.5-0.5
	c0.3-0.3,0.7-0.7,1.2-1.1c0.1-0.2,0.3-0.3,0.5-0.5l0.3-0.2l0.2-0.2c0.2-0.2,0.4-0.2,0.6,0c0.2,0.2,0.2,0.4,0,0.6l-0.1,0.1l-0.1,0.1
	c-0.2,0.3-0.5,0.6-0.7,0.9c-0.3,0.4-0.5,0.8-0.7,1.2c-0.6,1-0.8,1.8-0.7,2.4c0.1,0.1,0.3,0.2,0.7,0.1c0.4-0.1,0.9-0.3,1.5-0.7
	c1.6-1,3.3-2.5,5.1-4.7c0.2-0.3,0.5-0.3,0.7-0.1s0.3,0.5,0.1,0.8c-2.1,2.9-3,4.5-2.7,4.9c0.1,0.1,0.5,0,1.4-0.4
	c0.3-0.2,0.6-0.3,1-0.5c0.3-0.2,0.5-0.3,0.7-0.4c0.4-0.2,1-0.7,1.8-1.3c0.1-0.1,0.2-0.1,0.4-0.1C198.5,79.5,198.6,79.5,198.7,79.6z
	 M191.7,73.9c0.1-0.3,0.3-0.4,0.5-0.3c0.3,0.1,0.4,0.3,0.3,0.5v0.1c0,0.1,0,0.1,0.1,0.1c0.1,0,0.2,0,0.3,0c0.5-0.2,1.1-0.6,1.6-1.2
	c0.2-0.2,0.4-0.2,0.6,0c0.1,0.1,0.1,0.2,0.1,0.3s0,0.2-0.1,0.3l-0.1,0.1c0,0.1-0.1,0.1-0.1,0.1c-0.2,0.2-0.3,0.3-0.5,0.4
	c-0.5,0.4-1,0.7-1.4,0.9c-0.3,0.1-0.5,0.1-0.7,0.1c-0.2,0-0.3-0.1-0.4-0.2c-0.2-0.1-0.3-0.3-0.3-0.6
	C191.7,74.3,191.7,74.1,191.7,73.9z M223.6,78.1c0.7-0.5,1.1-0.9,1.2-1c0,0,0.1,0,0.1-0.1l0.1-0.1l0.1-0.1c0.2-0.2,0.4-0.3,0.5-0.4
	c0.4-0.3,0.7-0.5,0.8-0.4c1-0.7,1.8-0.7,2.4-0.1c0.3,0.3,0.3,0.6-0.1,0.9c-0.4,0.3-1,0.4-2,0.2c-0.1,0-0.2,0.1-0.4,0.2
	c-0.1,0.1-0.2,0.1-0.3,0.2c-0.1,0.1-0.3,0.1-0.4,0.2c-0.7,0.4-1.2,1-1.6,1.6c-0.4,0.7-0.6,1.3-0.5,1.8c0.1,0.4,0.5,0.7,1.1,0.9
	c1.3,0.3,2.8-0.1,4.6-1.2c0.5-0.3,1-0.7,1.7-1.2c0.1-0.1,0.2-0.1,0.4-0.1c0.1,0,0.2,0,0.3,0.1c0.1,0.2,0.1,0.4-0.2,0.6
	c-0.3,0.3-0.8,0.7-1.5,1.2l-0.2,0.1l-0.3,0.2c-0.2,0.1-0.4,0.2-0.5,0.3c-0.5,0.3-0.9,0.5-1.4,0.6c-1.2,0.5-2.3,0.6-3.4,0.3
	c-0.8-0.2-1.4-0.6-1.7-1.2c-0.3-0.6-0.3-1.1-0.1-1.7c-0.1,0.1-0.3,0.2-0.4,0.3c-0.2,0.2-0.5,0.5-0.7,0.7c-0.1,0.1-0.3,0.3-0.4,0.5
	l-0.2,0.2l-0.1,0.2c-0.4,0.4-0.7,0.5-1,0.3c-0.1-0.1-0.1-0.1-0.1-0.2l0,0c-0.1-0.6,0.1-1.6,0.6-2.9v0c-0.5,0.5-1,0.9-1.4,1.2
	c-0.3,0.4-0.7,0.8-1.2,1.1c-0.8,0.6-1.8,1-3,1.3c-1.2,0.3-2,0.2-2.4-0.1c-0.3-0.2-0.4-0.6-0.2-1.1c0.2-0.4,0.5-0.8,1-1.3
	c0.2-0.2,0.4-0.3,0.6-0.4c0.2-0.1,0.4-0.2,0.6-0.2c0.1,0,0.2,0,0.3,0.1c0.1,0.1,0.1,0.1,0.1,0.3c0,0.1,0,0.2-0.1,0.3
	c-0.1,0.1-0.1,0.2-0.3,0.2c-0.1,0-0.3,0.1-0.4,0.2c-0.2,0.1-0.3,0.2-0.4,0.3c0,0,0,0-0.1,0.1l-0.1,0.1c-0.1,0.1-0.2,0.2-0.3,0.3
	c-0.2,0.3-0.3,0.5-0.2,0.6c0.1,0,0.2,0,0.5,0c0.3,0,0.6-0.1,1-0.2c1-0.2,1.9-0.6,2.7-1.2c1.1-0.8,1.7-1.7,1.8-2.5
	c0.1-0.9-0.4-1.2-1.6-1l-0.1,0.1l-0.1,0.1l-0.4,0.2c-0.3,0.1-0.5,0.2-0.7,0.1c-0.2-0.1-0.3-0.2-0.3-0.3c0-0.1,0-0.2,0-0.3l0.1-0.1
	l0.1-0.1c0.2-0.1,0.4-0.2,0.7-0.3c0.8-0.4,1.6-0.5,2.3-0.3c0.8,0.3,1.1,1,1,2.1c0,0.1,0,0.1,0,0.2c0.3-0.3,0.6-0.6,0.8-0.9
	c0.1-0.1,0.3-0.3,0.4-0.5L221,77l0.1-0.2c0.4-0.4,0.7-0.5,1-0.3c0.2,0.2,0.2,0.4,0.1,0.7c-0.7,1.5-1.2,2.6-1.5,3.3l0.9-0.8
	c0.7-0.7,1.3-1.1,1.7-1.4C223.4,78.2,223.5,78.1,223.6,78.1z M243.1,79.6c0.1,0.2,0.1,0.4-0.1,0.6c-0.3,0.3-0.6,0.5-0.9,0.7
	c-2,1.5-3.5,2.2-4.6,2.2c-1.1,0-1.3-0.9-0.5-2.6l-0.3,0.3c-2.2,1.7-3.8,2.4-4.7,2c-0.8-0.3-0.9-1.2-0.3-2.7
	c-0.2,0.1-0.3,0.3-0.5,0.4l-0.2,0.1l-0.2,0.1c-0.1,0-0.2,0.1-0.3,0.1c-0.1,0-0.2-0.1-0.3-0.1c-0.1-0.1-0.1-0.2-0.1-0.3
	c0-0.1,0.1-0.2,0.1-0.3c0.1-0.1,0.2-0.2,0.5-0.5c0.1-0.1,0.3-0.2,0.4-0.3c0.2-0.2,0.3-0.3,0.5-0.5c0.3-0.3,0.7-0.7,1.2-1.1
	c0.1-0.2,0.3-0.3,0.5-0.5l0.3-0.2l0.2-0.2c0.2-0.2,0.4-0.2,0.6,0c0.2,0.2,0.2,0.4,0,0.6l-0.1,0.1l-0.1,0.1c-0.2,0.3-0.5,0.6-0.7,0.9
	c-0.3,0.4-0.5,0.8-0.7,1.2c-0.6,1-0.8,1.8-0.7,2.4c0.1,0.1,0.3,0.2,0.7,0.1c0.4-0.1,0.9-0.3,1.5-0.7c1.6-1,3.3-2.5,5.1-4.7
	c0.2-0.3,0.5-0.3,0.7-0.1s0.3,0.5,0.1,0.8c-2.1,2.9-3,4.5-2.7,4.9c0.1,0.1,0.5,0,1.4-0.4c0.3-0.2,0.6-0.3,1-0.5
	c0.3-0.2,0.5-0.3,0.7-0.4c0.4-0.2,1-0.7,1.8-1.3c0.1-0.1,0.2-0.1,0.4-0.1C242.9,79.5,243,79.5,243.1,79.6z M254.3,79.6
	c0.1,0.2,0.1,0.4-0.1,0.6c-0.1,0.1-0.3,0.3-0.5,0.4l-0.3,0.2l-0.3,0.3c-0.4,0.3-1.2,0.8-2.5,1.5l-0.4,0.2l-0.4,0.3l-0.9,0.5
	c-0.7,0.4-1.3,0.8-1.9,1.1c-0.4,3-1.6,5.7-3.5,8.2c-2.1,2.7-4,3.7-5.8,2.8c-0.9-0.4-1.2-1.2-1-2.4c0.2-1.1,0.8-2.3,1.8-3.5
	c1.4-1.6,3.9-3.5,7.5-5.6c0.2-1,0.2-1.8,0-2.3c0-0.2-0.1-0.3-0.2-0.5l-0.1-0.1l-0.1-0.1c-0.1-0.1-0.2-0.3-0.2-0.4
	c0-0.2,0.1-0.4,0.4-0.5c1.2-0.7,2.5-1.9,3.7-3.5c-1,0.3-1.8,0.4-2.7,0.1c-0.4,0.4-1,1-1.7,1.7c-1,1-1.8,1.7-2.3,2
	c-0.2,0.1-0.4,0.1-0.5-0.1c-0.1-0.1-0.1-0.2-0.1-0.3c0-0.1,0.1-0.2,0.1-0.3c0.1-0.1,0.2-0.2,0.5-0.5c0.2-0.1,0.3-0.3,0.5-0.4
	c0.2-0.2,0.4-0.3,0.6-0.5c0.8-0.8,1.5-1.5,2-2.2c-0.1-0.1-0.2-0.3-0.3-0.4c-0.1-0.2,0-0.5,0.2-0.6c0.2-0.2,0.4-0.2,0.6-0.2
	c0.2,0,0.5,0,0.6,0.2c0.2,0.1,0.3,0.3,0.2,0.6c0.4,0.1,0.8,0.1,1.3,0c0.6-0.1,1.3-0.4,2-0.9c0.3-0.2,0.5-0.2,0.7,0.1
	c0.1,0.2,0.1,0.5-0.1,0.8c-0.1,0.2-0.6,0.8-1.3,1.7c-1,1.3-2.1,2.4-3.4,3.3c0.4,0.6,0.5,1.5,0.5,2.7c0.2-0.1,0.6-0.3,1.1-0.6
	c0.2-0.1,0.4-0.2,0.7-0.4l0.7-0.4c1.2-0.7,1.9-1.1,2.2-1.2c0.7-0.4,1.4-0.9,2.1-1.5c0.1-0.1,0.2-0.1,0.4-0.1
	C254.1,79.5,254.2,79.5,254.3,79.6z M244.5,88.8c0.5-1.2,0.8-2.3,1.1-3.3c-0.5,0.3-1.3,0.8-2.3,1.6c-3.5,2.5-5.5,4.6-5.9,6.3
	c-0.2,0.7,0,1.2,0.4,1.5c0.4,0.3,1,0.3,1.8,0.1c1-0.4,2-1.3,3-2.6C243.2,91.3,243.9,90.1,244.5,88.8z M261,78.1
	c0.4-0.6,0.7-1.1,1-1.4c0.2-0.2,0.4-0.2,0.6-0.1c0.2,0.2,0.2,0.4,0.1,0.6c0,0,0,0.1-0.1,0.1l-0.1,0.1l-0.1,0.1
	c-0.1,0.2-0.2,0.4-0.3,0.6c-0.3,0.6-0.7,1.1-0.9,1.6c-0.8,1.5-1.1,2.2-0.9,2.3c0.4,0.1,1-0.1,2-0.6c0.9-0.5,1.8-1.1,2.7-1.8
	c0.1-0.1,0.3-0.1,0.4-0.1c0.1,0,0.2,0,0.3,0.1c0.1,0.2,0.1,0.4-0.1,0.6c-0.3,0.3-0.8,0.7-1.5,1.2c-1,0.7-1.9,1.2-2.6,1.5
	c-0.9,0.3-1.6,0.3-2-0.2c-0.4-0.5-0.3-1.3,0.3-2.5c-1.7,1.2-3,1.6-3.7,1.3c-0.5-0.2-0.7-0.6-0.7-1.3c-0.1,0.1-0.1,0.2-0.2,0.3
	l-0.9,1.7c-0.2,0.1-0.4,0-0.5-0.1c-0.1-0.2-0.2-0.4-0.1-0.6c0.1-0.2,0.4-0.8,0.9-1.8c-0.2,0.2-0.5,0.4-0.7,0.6
	c-0.1,0.1-0.2,0.1-0.3,0.2l-0.2,0.1c-0.1,0-0.1,0.1-0.3,0.1c-0.1,0-0.2-0.1-0.3-0.1c-0.1-0.1-0.1-0.2-0.1-0.3c0-0.1,0.1-0.2,0.1-0.3
	c0.1-0.1,0.2-0.2,0.4-0.3c0.1-0.1,0.2-0.2,0.3-0.2c0.1-0.1,0.2-0.2,0.3-0.3c0,0,0.1-0.1,0.1-0.1c0.1,0,0.1-0.1,0.2-0.2
	c0.2-0.2,0.4-0.3,0.6-0.5c0.6-0.6,1.1-1.1,1.7-1.7c0.2-0.2,0.4-0.2,0.6,0c0.2,0.2,0.2,0.4,0.1,0.5c-0.1,0.2-0.3,0.4-0.4,0.6l0.1-0.1
	c-0.5,1.2-0.7,2.2-0.6,2.8c0.1,0.1,0.3,0.2,0.7,0.1c0.4-0.1,0.9-0.3,1.5-0.7C259.3,79.5,260.1,78.8,261,78.1z M277.2,79.6
	c0.1,0.2,0.1,0.4-0.1,0.6c-0.3,0.3-0.6,0.5-0.9,0.7c-2,1.5-3.5,2.2-4.6,2.2c-1.1,0-1.3-0.9-0.5-2.6l-0.3,0.3c-2.2,1.7-3.8,2.4-4.7,2
	c-0.8-0.3-0.9-1.2-0.3-2.7c-0.2,0.1-0.3,0.3-0.5,0.4l-0.2,0.1l-0.2,0.1c-0.1,0-0.2,0.1-0.3,0.1c-0.1,0-0.2-0.1-0.3-0.1
	c-0.1-0.1-0.1-0.2-0.1-0.3c0-0.1,0.1-0.2,0.1-0.3c0.1-0.1,0.2-0.2,0.5-0.5c0.1-0.1,0.3-0.2,0.4-0.3c0.2-0.2,0.3-0.3,0.5-0.5
	c0.3-0.3,0.7-0.7,1.2-1.1c0.1-0.2,0.3-0.3,0.5-0.5l0.3-0.2l0.2-0.2c0.2-0.2,0.4-0.2,0.6,0c0.2,0.2,0.2,0.4,0,0.6l-0.1,0.1l-0.1,0.1
	c-0.2,0.3-0.5,0.6-0.7,0.9c-0.3,0.4-0.5,0.8-0.7,1.2c-0.6,1-0.8,1.8-0.7,2.4c0.1,0.1,0.3,0.2,0.7,0.1c0.4-0.1,0.9-0.3,1.5-0.7
	c1.6-1,3.3-2.5,5.1-4.7c0.2-0.3,0.5-0.3,0.7-0.1c0.3,0.2,0.3,0.5,0.1,0.8c-2.1,2.9-3,4.5-2.7,4.9c0.1,0.1,0.5,0,1.4-0.4
	c0.3-0.2,0.6-0.3,1-0.5c0.3-0.2,0.5-0.3,0.7-0.4c0.4-0.2,1-0.7,1.8-1.3c0.1-0.1,0.2-0.1,0.4-0.1C277,79.5,277.1,79.5,277.2,79.6z
	 M279.5,80.9c0.2,0.1,0.2,0.2,0.2,0.4c0,0.2-0.1,0.4-0.2,0.6c-0.1,0.2-0.3,0.4-0.5,0.5c-0.2,0.1-0.5,0.1-0.7-0.1
	c-0.4-0.3-0.5-0.7-0.2-1.2c0.2-0.4,0.6-0.7,1.1-0.7c0.2,0,0.3,0.1,0.3,0.2S279.5,80.8,279.5,80.9z M278.7,81.7
	c0.1,0.1,0.1,0,0.2-0.2l0.1-0.2v-0.1l0-0.1c0,0-0.1,0-0.1,0.1l-0.1,0.1C278.7,81.5,278.7,81.6,278.7,81.7L278.7,81.7L278.7,81.7z
	 M26.2,16.5c0,3.1-1.8,6-5.5,8.8c-3.7,2.9-7.7,4.3-12,4.3c-1.5,0-3.1-0.2-4.8-0.7C1.3,28.2,0,27.1,0,25.6c0-0.6,0.5-0.8,1.6-0.9
	c2.7,0,4.7,0.8,6.2,2.4c0,0.1-0.1,0.2-0.2,0.2c-1.7-1.5-3.4-2.3-5.2-2.3c-0.8,0-1.6,0.5-1.2,1.1C1.3,26.7,1.8,27,3,27.6
	c1.5,0.8,3.4,1.1,5.6,1.1c2.6,0,5.2-0.7,7.9-2.1c2.4-1.3,4.4-2.4,6-4.4c1.6-2,2.4-3.8,2.4-5.5c0-1.6-0.5-3-1.5-4.1
	c-1.5-1.5-3.8-2.3-7.1-2.3c-1.9,0-3.6,0.2-5,0.6c-0.2,0.1-0.3,0.1-0.3,0.1c-0.1,0-0.2,0-0.2-0.1c0-0.1,0.2-0.3,0.5-0.4
	c2-0.8,3.8-1.7,5.4-2.7c3-1.9,4.5-3.8,4.5-5.6c0-0.8-0.5-1.2-1.6-1.2c-1.8,0-4.1,1.4-6.8,4.2C10.3,8,8.1,11,6,14.4
	c-2.1,3.5-3.1,6.2-3.2,8C2.8,23,2.5,23.2,2,23.2c-0.4,0-0.6-0.2-0.6-0.5c0-1.3,1-3.7,3.1-7.3c2.3-4,4.7-7.3,7.3-10
	c3.2-3.4,6.1-5,8.6-5c0.7,0,1.3,0.2,1.7,0.6c0.4,0.3,0.5,0.7,0.5,1.1c0,2.1-2.7,4.7-8,7.9c0,0.1,0.1,0.1,0.4,0.1c0.1,0,0.4,0,1-0.1
	c0.6-0.1,1.2-0.1,1.7-0.1c2.1,0,3.8,0.4,5.3,1.2C25.1,12.1,26.2,13.9,26.2,16.5z"/>
</svg>
